# Blender v3.4.1 OBJ File: ''
# www.blender.org
mtllib phase_gen_2.mtl
o ip_gen_2
v 0.126280 0.149320 0.873720
v 0.873720 0.149320 0.873720
v 0.791700 0.547430 0.791700
v 0.208300 0.547430 0.791700
v 0.873720 0.149320 0.126280
v 0.791700 0.547430 0.208300
v 0.126280 0.149320 0.126280
v 0.208300 0.547430 0.208300
v 0.000000 -0.000000 1.000000
v 0.000000 0.000000 0.000000
v 1.000000 0.000000 0.000000
v 1.000000 -0.000000 1.000000
v 1.000000 0.149320 1.000000
v 0.000000 0.149320 1.000000
v 1.000000 0.149320 0.000000
v 0.000000 0.149320 0.000000
v 0.671410 0.694600 0.400870
v 0.871970 0.694680 0.200300
v 0.801260 0.694680 0.129590
v 0.600700 0.694600 0.330150
v 0.671410 0.143980 0.400860
v 0.600700 0.143980 0.330150
v 0.945550 0.399450 0.126730
v 0.945220 0.143980 0.127050
v 0.874510 0.143980 0.056340
v 0.874840 0.399450 0.056020
v 0.400870 0.694600 0.328590
v 0.200300 0.694680 0.128030
v 0.129590 0.694680 0.198740
v 0.330150 0.694600 0.399300
v 0.400860 0.143980 0.328590
v 0.330150 0.143980 0.399300
v 0.126730 0.399450 0.054450
v 0.127050 0.143980 0.054780
v 0.056340 0.143980 0.125490
v 0.056020 0.399450 0.125160
v 0.328590 0.694600 0.599130
v 0.128020 0.694680 0.799700
v 0.198740 0.694680 0.870410
v 0.399300 0.694600 0.669850
v 0.328590 0.143980 0.599130
v 0.399300 0.143980 0.669850
v 0.054450 0.399450 0.873270
v 0.054780 0.143980 0.872950
v 0.125490 0.143980 0.943660
v 0.125160 0.399450 0.943980
v 0.599140 0.694600 0.671410
v 0.799700 0.694680 0.871970
v 0.870410 0.694680 0.801260
v 0.669850 0.694600 0.600700
v 0.599140 0.143980 0.671410
v 0.669850 0.143980 0.600700
v 0.873270 0.399450 0.945550
v 0.872950 0.143980 0.945220
v 0.943660 0.143980 0.874510
v 0.943980 0.399450 0.874840
v 0.379940 0.360310 0.620060
v 0.620060 0.360310 0.620060
v 0.620060 0.974970 0.620060
v 0.379940 0.974970 0.620060
v 0.620060 0.360310 0.379940
v 0.620060 0.974980 0.379940
v 0.379940 0.360310 0.379940
v 0.379940 0.974970 0.379940
v 0.329050 0.910080 0.670950
v 0.329050 0.910080 0.329050
v 0.670950 0.910080 0.329050
v 0.670950 0.910080 0.670950
v 0.670950 0.983350 0.670950
v 0.329050 0.983350 0.670950
v 0.670950 0.983360 0.329050
v 0.329050 0.983350 0.329050
vt 0.024500 0.386800
vt 0.447100 0.386800
vt 0.400700 0.611900
vt 0.070900 0.611900
vt 0.024500 0.386800
vt 0.447100 0.386800
vt 0.400700 0.611900
vt 0.070900 0.611900
vt 0.024500 0.386800
vt 0.447100 0.386800
vt 0.400700 0.611900
vt 0.070900 0.611900
vt 0.024500 0.386800
vt 0.447100 0.386800
vt 0.400700 0.611900
vt 0.070900 0.611900
vt 0.393900 0.360300
vt 0.064100 0.360300
vt 0.064100 0.030500
vt 0.393900 0.030500
vt 0.968000 0.025400
vt 0.968000 0.498700
vt 0.494600 0.498700
vt 0.494600 0.025400
vt 0.494600 0.227900
vt 0.968000 0.227900
vt 0.968000 0.296200
vt 0.494600 0.296200
vt 0.494600 0.227900
vt 0.968000 0.227900
vt 0.968000 0.296200
vt 0.494600 0.296200
vt 0.494600 0.227900
vt 0.968000 0.227900
vt 0.968000 0.296200
vt 0.494600 0.296200
vt 0.494600 0.227900
vt 0.968000 0.227900
vt 0.968000 0.296200
vt 0.494600 0.296200
vt 0.968000 0.498700
vt 0.494600 0.498700
vt 0.494600 0.025400
vt 0.968000 0.025400
vt 0.115200 0.635900
vt 0.294700 0.635900
vt 0.294700 0.692500
vt 0.115200 0.692500
vt 0.404900 0.692500
vt 0.070800 0.692500
vt 0.070800 0.635900
vt 0.404900 0.635900
vt 0.249900 0.635900
vt 0.404900 0.635900
vt 0.404900 0.692500
vt 0.249900 0.692500
vt 0.070800 0.635900
vt 0.070800 0.692500
vt 0.411000 0.979500
vt 0.411000 0.802000
vt 0.231700 0.736600
vt 0.076200 0.736600
vt 0.076200 0.979500
vt 0.411000 0.979500
vt 0.076200 0.979500
vt 0.076200 0.736600
vt 0.231700 0.736600
vt 0.411000 0.802000
vt 0.115200 0.635900
vt 0.294700 0.635900
vt 0.294700 0.692500
vt 0.115200 0.692500
vt 0.404900 0.692500
vt 0.070800 0.692500
vt 0.070800 0.635900
vt 0.404900 0.635900
vt 0.249900 0.635900
vt 0.404900 0.635900
vt 0.404900 0.692500
vt 0.249900 0.692500
vt 0.070800 0.635900
vt 0.070800 0.692500
vt 0.411000 0.979500
vt 0.411000 0.802000
vt 0.231700 0.736600
vt 0.076200 0.736600
vt 0.076200 0.979500
vt 0.411000 0.979500
vt 0.076200 0.979500
vt 0.076200 0.736600
vt 0.231700 0.736600
vt 0.411000 0.802000
vt 0.115200 0.635900
vt 0.294700 0.635900
vt 0.294700 0.692500
vt 0.115200 0.692500
vt 0.404900 0.692500
vt 0.070800 0.692500
vt 0.070800 0.635900
vt 0.404900 0.635900
vt 0.249900 0.635900
vt 0.404900 0.635900
vt 0.404900 0.692500
vt 0.249900 0.692500
vt 0.070800 0.635900
vt 0.070800 0.692500
vt 0.411000 0.979500
vt 0.411000 0.802000
vt 0.231700 0.736600
vt 0.076200 0.736600
vt 0.076200 0.979500
vt 0.411000 0.979500
vt 0.076200 0.979500
vt 0.076200 0.736600
vt 0.231700 0.736600
vt 0.411000 0.802000
vt 0.115200 0.635900
vt 0.294700 0.635900
vt 0.294700 0.692500
vt 0.115200 0.692500
vt 0.404900 0.692500
vt 0.070800 0.692500
vt 0.070800 0.635900
vt 0.404900 0.635900
vt 0.249900 0.635900
vt 0.404900 0.635900
vt 0.404900 0.692500
vt 0.249900 0.692500
vt 0.070800 0.635900
vt 0.070800 0.692500
vt 0.411000 0.979500
vt 0.411000 0.802000
vt 0.231700 0.736600
vt 0.076200 0.736600
vt 0.076200 0.979500
vt 0.411000 0.979500
vt 0.076200 0.979500
vt 0.076200 0.736600
vt 0.231700 0.736600
vt 0.411000 0.802000
vt 0.523500 0.545700
vt 0.681500 0.545700
vt 0.681500 0.965500
vt 0.523500 0.965500
vt 0.523500 0.545700
vt 0.681500 0.545700
vt 0.681500 0.965500
vt 0.523500 0.965500
vt 0.523500 0.545700
vt 0.681500 0.545700
vt 0.681500 0.965500
vt 0.523500 0.965500
vt 0.523500 0.545700
vt 0.681500 0.545700
vt 0.681500 0.965500
vt 0.523500 0.965500
vt 0.958500 0.736800
vt 0.958500 0.978400
vt 0.717000 0.978400
vt 0.717000 0.736800
vt 0.718000 0.657900
vt 0.958500 0.657900
vt 0.958500 0.709500
vt 0.718000 0.709500
vt 0.718000 0.657900
vt 0.958500 0.657900
vt 0.958500 0.709500
vt 0.718000 0.709500
vt 0.718000 0.657900
vt 0.958500 0.657900
vt 0.958500 0.709500
vt 0.718000 0.709500
vt 0.718000 0.657900
vt 0.958500 0.657900
vt 0.958500 0.709500
vt 0.718000 0.709500
vt 0.958500 0.978400
vt 0.717000 0.978400
vt 0.717000 0.736800
vt 0.958500 0.736800
vn 0.0000 0.2018 0.9794
vn 0.9794 0.2018 0.0000
vn 0.0000 0.2018 -0.9794
vn -0.9794 0.2018 0.0000
vn -0.6318 0.7752 0.0000
vn -0.6317 0.7752 0.0000
vn 0.0000 1.0000 0.0000
vn 0.0000 -1.0000 -0.0000
vn 0.0000 0.0000 1.0000
vn 1.0000 -0.0000 0.0000
vn 0.0000 0.0000 -1.0000
vn -1.0000 0.0000 0.0000
vn -0.7071 0.7071 0.0000
vn -0.0002 1.0000 0.0002
vn -0.7071 -0.0000 0.7071
vn -0.7072 -0.0000 0.7071
vn 0.7071 -0.0018 -0.7071
vn 0.6669 0.3324 -0.6669
vn -0.7071 -0.0000 -0.7071
vn 0.7071 0.0000 0.7071
vn 0.0002 1.0000 0.0002
vn 0.7071 -0.0000 0.7072
vn -0.7071 -0.0018 -0.7071
vn -0.6669 0.3324 -0.6669
vn 0.7071 0.0000 -0.7071
vn 0.0002 1.0000 -0.0002
vn 0.7072 0.0000 -0.7071
vn -0.7071 -0.0018 0.7071
vn -0.6669 0.3324 0.6669
vn -0.0002 1.0000 -0.0002
vn 0.7071 -0.0018 0.7071
vn 0.6669 0.3324 0.6669
usemtl phase_gen_2
s 1
f 1/1/1 2/2/1 3/3/1
f 1/1/1 3/3/1 4/4/1
f 2/5/2 5/6/2 6/7/2
f 2/5/2 6/7/2 3/8/2
f 5/9/3 7/10/3 8/11/3
f 5/9/3 8/11/3 6/12/3
f 7/13/4 1/14/4 4/15/5
f 7/13/4 4/15/5 8/16/6
f 6/17/7 8/18/6 4/19/5
f 6/17/7 4/19/5 3/20/7
f 9/21/8 10/22/8 11/23/8
f 9/21/8 11/23/8 12/24/8
f 9/25/9 12/26/9 13/27/9
f 9/25/9 13/27/9 14/28/9
f 12/29/10 11/30/10 15/31/10
f 12/29/10 15/31/10 13/32/10
f 11/33/11 10/34/11 16/35/11
f 11/33/11 16/35/11 15/36/11
f 10/37/12 9/38/12 14/39/13
f 10/37/12 14/39/13 16/40/13
f 15/41/7 16/42/13 14/43/13
f 15/41/7 14/43/13 13/44/7
f 17/45/14 18/46/7 19/47/14
f 17/45/14 19/47/14 20/48/7
f 21/49/15 17/50/16 20/51/16
f 21/49/15 20/51/16 22/52/15
f 23/53/17 24/54/17 25/55/17
f 23/53/17 25/55/17 26/56/17
f 18/57/18 23/53/18 26/56/18
f 18/57/18 26/56/18 19/58/18
f 20/59/19 19/60/19 26/61/19
f 20/59/19 26/61/19 25/62/19
f 20/59/19 25/62/19 22/63/19
f 17/64/20 21/65/20 24/66/20
f 17/64/20 24/66/20 23/67/20
f 17/64/20 23/67/20 18/68/20
f 27/69/21 28/70/7 29/71/21
f 27/69/21 29/71/21 30/72/7
f 31/73/20 27/74/22 30/75/22
f 31/73/20 30/75/22 32/76/20
f 33/77/23 34/78/23 35/79/23
f 33/77/23 35/79/23 36/80/23
f 28/81/24 33/77/24 36/80/24
f 28/81/24 36/80/24 29/82/24
f 30/83/15 29/84/15 36/85/15
f 30/83/15 36/85/15 35/86/15
f 30/83/15 35/86/15 32/87/15
f 27/88/25 31/89/25 34/90/25
f 27/88/25 34/90/25 33/91/25
f 27/88/25 33/91/25 28/92/25
f 37/93/26 38/94/7 39/95/7
f 37/93/26 39/95/7 40/96/7
f 41/97/27 37/98/27 40/99/27
f 41/97/27 40/99/27 42/100/27
f 43/101/28 44/102/28 45/103/28
f 43/101/28 45/103/28 46/104/28
f 38/105/29 43/101/29 46/104/29
f 38/105/29 46/104/29 39/106/29
f 40/107/20 39/108/20 46/109/20
f 40/107/20 46/109/20 45/110/20
f 40/107/20 45/110/20 42/111/20
f 37/112/19 41/113/19 44/114/19
f 37/112/19 44/114/19 43/115/19
f 37/112/19 43/115/19 38/116/19
f 47/117/30 48/118/7 49/119/30
f 47/117/30 49/119/30 50/120/30
f 51/121/19 47/122/19 50/123/19
f 51/121/19 50/123/19 52/124/19
f 53/125/31 54/126/31 55/127/31
f 53/125/31 55/127/31 56/128/31
f 48/129/32 53/125/32 56/128/32
f 48/129/32 56/128/32 49/130/32
f 50/131/25 49/132/25 56/133/25
f 50/131/25 56/133/25 55/134/25
f 50/131/25 55/134/25 52/135/25
f 47/136/15 51/137/15 54/138/15
f 47/136/15 54/138/15 53/139/15
f 47/136/15 53/139/15 48/140/15
f 57/141/9 58/142/9 59/143/9
f 57/141/9 59/143/9 60/144/9
f 58/145/10 61/146/10 62/147/10
f 58/145/10 62/147/10 59/148/10
f 61/149/11 63/150/11 64/151/11
f 61/149/11 64/151/11 62/152/11
f 63/153/12 57/154/12 60/155/12
f 63/153/12 60/155/12 64/156/12
f 65/157/8 66/158/8 67/159/8
f 65/157/8 67/159/8 68/160/8
f 65/161/9 68/162/9 69/163/9
f 65/161/9 69/163/9 70/164/9
f 68/165/10 67/166/10 71/167/10
f 68/165/10 71/167/10 69/168/10
f 67/169/11 66/170/11 72/171/11
f 67/169/11 72/171/11 71/172/11
f 66/173/12 65/174/12 70/175/13
f 66/173/12 70/175/13 72/176/13
f 71/177/7 72/178/13 70/179/13
f 71/177/7 70/179/13 69/180/7
