# Made in Blockbench 4.9.4
mtllib solar_gen.mtl

o solar
v 0.497693 0.265746 0.9750002374687726
v 0.497693 0.265746 0.024999762531227265
v 0.284428 0.265746 0.024999762531227265
v 0.284428 0.265746 0.9750002374687726
v 0.497693 0.001884 0.9750002374687726
v 0.284428 0.001884 0.9750002374687726
v 0.284428 0.001884 0.024999762531227265
v 0.497693 0.001884 0.024999762531227265
v 0.710957 0.265746 0.9750002374687726
v 0.710957 0.265746 0.024999762531227265
v 0.710957 0.001884 0.024999762531227265
v 0.710957 0.001884 0.9750002374687726
v 0.996239 0.478851 1
v 0.996239 0.478851 1.1102230246251565e-16
v 0.618091 0.343227 1.1102230246251565e-16
v 0.618091 0.343227 1
v 1.005311 0.453556 1
v 0.627163 0.317932 1
v 0.627163 0.317933 1.1102230246251565e-16
v 1.005311 0.453557 1.1102230246251565e-16
v 1.014383 0.428262 1
v 0.636235 0.292638 1
v 0.636235 0.292638 1.1102230246251565e-16
v 1.014383 0.428262 1.1102230246251565e-16
v 0.381909 0.343227 1.1102230246251565e-16
v 0.003761 0.478851 1.1102230246251565e-16
v 0.003761 0.478851 1
v 0.381909 0.343227 1
v -0.005311 0.453556 1
v 0.372838 0.317932 1
v 0.372838 0.317933 1.1102230246251565e-16
v -0.005311 0.453557 1.1102230246251565e-16
v 0.363765 0.292638 1.1102230246251565e-16
v 0.363765 0.292638 1
v -0.014383 0.428262 1
v -0.014383 0.428262 1.1102230246251565e-16
v 0.398357 0.320886 0.5551753944356317
v 0.398357 0.320886 0.5716177322682068
v 0.325252 0.295831 0.5716177322682068
v 0.325252 0.295831 0.5551753944356317
v 0.367832 0.409956 0.5551753944356317
v 0.294725 0.384901 0.5551753944356317
v 0.294725 0.384901 0.5716177322682068
v 0.367832 0.409956 0.5716177322682068
v 0.398357 0.320886 0.43485091710440077
v 0.398357 0.320886 0.4512932549369758
v 0.325252 0.295831 0.4512932549369758
v 0.325252 0.295831 0.43485091710440077
v 0.367832 0.409956 0.43485091710440077
v 0.294725 0.384901 0.43485091710440077
v 0.294725 0.384901 0.4512932549369758
v 0.367832 0.409956 0.4512932549369758
v 0.497693 0.359712 0.12000056992505492
v 0.345033 0.359712 0.12000056992505492
v 0.345033 0.359712 0.879999430074945
v 0.497693 0.359712 0.879999430074945
v 0.345033 0.255004 0.879999430074945
v 0.497693 0.255004 0.879999430074945
v 0.497693 0.255005 0.12000056992505492
v 0.345033 0.255005 0.12000056992505492
v 0.650352 0.359712 0.879999430074945
v 0.650352 0.359712 0.12000056992505492
v 0.650352 0.255004 0.879999430074945
v 0.650352 0.255005 0.12000056992505492
v 0.663891 0.295831 0.5716177322682068
v 0.590786 0.320886 0.5716177322682068
v 0.590786 0.320886 0.5551753944356317
v 0.663891 0.295831 0.5551753944356317
v 0.694418 0.384901 0.5716177322682068
v 0.694418 0.384901 0.5551753944356317
v 0.621311 0.409956 0.5551753944356317
v 0.621311 0.409956 0.5716177322682068
v 0.663891 0.295831 0.4512932549369758
v 0.590786 0.320886 0.4512932549369758
v 0.590786 0.320886 0.43485091710440077
v 0.663891 0.295831 0.43485091710440077
v 0.694418 0.384901 0.4512932549369758
v 0.694418 0.384901 0.43485091710440077
v 0.621311 0.409956 0.43485091710440077
v 0.621311 0.409956 0.4512932549369758
v 0.162086 0.062153 0.10106291022730518
v 0.162086 0.062153 0.07014447600140589
v 0.299556 0.015039 0.07014447600140589
v 0.299556 0.015039 0.10106291022730518
v 0.219488 0.229641 0.10106291022730518
v 0.356959 0.182528 0.10106291022730518
v 0.356959 0.182528 0.07014447600140589
v 0.219488 0.229641 0.07014447600140589
v 0.162086 0.062153 0.18416368247575454
v 0.162086 0.062153 0.15324524824985525
v 0.299556 0.015039 0.15324524824985525
v 0.299556 0.015039 0.18416368247575454
v 0.219488 0.229641 0.18416368247575454
v 0.356959 0.182528 0.18416368247575454
v 0.356959 0.182528 0.15324524824985525
v 0.219488 0.229641 0.15324524824985525
v 0.162086 0.062153 0.26726445472420385
v 0.162086 0.062153 0.23634602049830455
v 0.299556 0.015039 0.23634602049830455
v 0.299556 0.015039 0.26726445472420385
v 0.219488 0.229641 0.26726445472420385
v 0.356959 0.182528 0.26726445472420385
v 0.356959 0.182528 0.23634602049830455
v 0.219488 0.229641 0.23634602049830455
v 0.162086 0.062153 0.35036522697265315
v 0.162086 0.062153 0.3194467927467538
v 0.299556 0.015039 0.3194467927467538
v 0.299556 0.015039 0.35036522697265315
v 0.219488 0.229641 0.35036522697265315
v 0.356959 0.182528 0.35036522697265315
v 0.356959 0.182528 0.3194467927467538
v 0.219488 0.229641 0.3194467927467538
v 0.399648 0.059273 0.37464593405967117
v 0.399648 0.059273 0.4055643682855705
v 0.262177 0.012158 0.4055643682855705
v 0.262177 0.012158 0.37464593405967117
v 0.342247 0.226761 0.37464593405967117
v 0.204776 0.179646 0.37464593405967117
v 0.204776 0.179646 0.4055643682855705
v 0.342247 0.226761 0.4055643682855705
v 0.399648 0.059272 0.6009042810870371
v 0.399648 0.059272 0.6318227153129363
v 0.262177 0.012157 0.6318227153129363
v 0.262177 0.012157 0.6009042810870371
v 0.342247 0.226761 0.6009042810870371
v 0.204776 0.179646 0.6009042810870371
v 0.204776 0.179646 0.6318227153129363
v 0.342247 0.226761 0.6318227153129363
v 0.299556 0.015039 0.6894364391082572
v 0.162086 0.062152 0.6894364391082572
v 0.162086 0.062152 0.6585180048823579
v 0.299556 0.015039 0.6585180048823579
v 0.356959 0.182527 0.6894364391082572
v 0.356959 0.182527 0.6585180048823579
v 0.219488 0.229641 0.6585180048823579
v 0.219488 0.229641 0.6894364391082572
v 0.299556 0.015039 0.7725372113567066
v 0.162086 0.062152 0.7725372113567066
v 0.162086 0.062152 0.7416187771308071
v 0.299556 0.015039 0.7416187771308071
v 0.356959 0.182527 0.7725372113567066
v 0.356959 0.182527 0.7416187771308071
v 0.219488 0.229641 0.7416187771308071
v 0.219488 0.229641 0.7725372113567066
v 0.299556 0.015039 0.8556379836051557
v 0.162086 0.062152 0.8556379836051557
v 0.162086 0.062152 0.8247195493792565
v 0.299556 0.015039 0.8247195493792565
v 0.356959 0.182527 0.8556379836051557
v 0.356959 0.182527 0.8247195493792565
v 0.219488 0.229641 0.8247195493792565
v 0.219488 0.229641 0.8556379836051557
v 0.299556 0.015039 0.9387387558536052
v 0.162086 0.062152 0.9387387558536052
v 0.162086 0.062152 0.9078203216277059
v 0.299556 0.015039 0.9078203216277059
v 0.356959 0.182527 0.9387387558536052
v 0.356959 0.182527 0.9078203216277059
v 0.219488 0.229641 0.9078203216277059
v 0.219488 0.229641 0.9387387558536052
v 0.678003 0.015039 0.07014447600140589
v 0.815474 0.062153 0.07014447600140589
v 0.815474 0.062153 0.10106291022730518
v 0.678003 0.015039 0.10106291022730518
v 0.620601 0.182528 0.07014447600140589
v 0.620601 0.182528 0.10106291022730518
v 0.758072 0.229641 0.10106291022730518
v 0.758072 0.229641 0.07014447600140589
v 0.678003 0.015039 0.15324524824985525
v 0.815474 0.062153 0.15324524824985525
v 0.815474 0.062153 0.18416368247575454
v 0.678003 0.015039 0.18416368247575454
v 0.620601 0.182528 0.15324524824985525
v 0.620601 0.182528 0.18416368247575454
v 0.758072 0.229641 0.18416368247575454
v 0.758072 0.229641 0.15324524824985525
v 0.678003 0.015039 0.23634602049830455
v 0.815474 0.062153 0.23634602049830455
v 0.815474 0.062153 0.26726445472420385
v 0.678003 0.015039 0.26726445472420385
v 0.620601 0.182528 0.23634602049830455
v 0.620601 0.182528 0.26726445472420385
v 0.758072 0.229641 0.26726445472420385
v 0.758072 0.229641 0.23634602049830455
v 0.678003 0.015039 0.3194467927467538
v 0.815474 0.062153 0.3194467927467538
v 0.815474 0.062153 0.35036522697265315
v 0.678003 0.015039 0.35036522697265315
v 0.620601 0.182528 0.3194467927467538
v 0.620601 0.182528 0.35036522697265315
v 0.758072 0.229641 0.35036522697265315
v 0.758072 0.229641 0.3194467927467538
v 0.815474 0.062152 0.6585180048823579
v 0.815474 0.062152 0.6894364391082572
v 0.678003 0.015039 0.6894364391082572
v 0.678003 0.015039 0.6585180048823579
v 0.758072 0.229641 0.6585180048823579
v 0.620601 0.182527 0.6585180048823579
v 0.620601 0.182527 0.6894364391082572
v 0.758072 0.229641 0.6894364391082572
v 0.815474 0.062152 0.7416187771308071
v 0.815474 0.062152 0.7725372113567066
v 0.678003 0.015039 0.7725372113567066
v 0.678003 0.015039 0.7416187771308071
v 0.758072 0.229641 0.7416187771308071
v 0.620601 0.182527 0.7416187771308071
v 0.620601 0.182527 0.7725372113567066
v 0.758072 0.229641 0.7725372113567066
v 0.815474 0.062152 0.8247195493792565
v 0.815474 0.062152 0.8556379836051557
v 0.678003 0.015039 0.8556379836051557
v 0.678003 0.015039 0.8247195493792565
v 0.758072 0.229641 0.8247195493792565
v 0.620601 0.182527 0.8247195493792565
v 0.620601 0.182527 0.8556379836051557
v 0.758072 0.229641 0.8556379836051557
v 0.815474 0.062152 0.9078203216277059
v 0.815474 0.062152 0.9387387558536052
v 0.678003 0.015039 0.9387387558536052
v 0.678003 0.015039 0.9078203216277059
v 0.758072 0.229641 0.9078203216277059
v 0.620601 0.182527 0.9078203216277059
v 0.620601 0.182527 0.9387387558536052
v 0.758072 0.229641 0.9387387558536052
v 0.647141 0.152097 0.5000009498750915
v 0.647141 0.152097 0.4099071972035677
v 0.150035 0.152097 0.4099071972035677
v 0.150035 0.152097 0.5000009498750915
v 0.150035 0.087042 0.4099071972035677
v 0.150035 0.087042 0.5000009498750915
v 0.647141 0.087042 0.5000009498750915
v 0.647141 0.087042 0.4099071972035677
v 0.150035 0.152097 0.5900928027964323
v 0.647141 0.152097 0.5900928027964323
v 0.150035 0.087042 0.5900928027964323
v 0.647141 0.087042 0.5900928027964323
v 0.678003 0.015039 0.4482745518964257
v 0.815474 0.062153 0.4482745518964257
v 0.815474 0.062153 0.4791929861223249
v 0.678003 0.015039 0.4791929861223249
v 0.620601 0.182528 0.4482745518964257
v 0.620601 0.182527 0.4791929861223249
v 0.758072 0.229641 0.4791929861223249
v 0.758072 0.229641 0.4482745518964257
v 0.678003 0.015039 0.531375324144875
v 0.815474 0.062152 0.531375324144875
v 0.815474 0.062152 0.5622937583707742
v 0.678003 0.015039 0.5622937583707742
v 0.620601 0.182527 0.531375324144875
v 0.620601 0.182527 0.5622937583707742
v 0.758072 0.229641 0.5622937583707742
v 0.758072 0.229641 0.531375324144875
vt 0.5585 0.7722
vt 0.5585 0.16979999999999995
vt 0.6869 0.16979999999999995
vt 0.5585 0.7722
vt 0.6869 0.16979999999999995
vt 0.6869 0.7722
vt 0.9743 0.7722
vt 0.8458 0.7722
vt 0.8458 0.16979999999999995
vt 0.9743 0.7722
vt 0.8458 0.16979999999999995
vt 0.9743 0.16979999999999995
vt 0.8458 0.04139999999999999
vt 0.8458 0.16979999999999995
vt 0.6869 0.16979999999999995
vt 0.8458 0.04139999999999999
vt 0.6869 0.16979999999999995
vt 0.6869 0.04139999999999999
vt 0.8458 0.7722
vt 0.8458 0.9007
vt 0.6869 0.9007
vt 0.8458 0.7722
vt 0.6869 0.9007
vt 0.6869 0.7722
vt 0.8458 0.16979999999999995
vt 0.8458 0.7722
vt 0.6869 0.7722
vt 0.8458 0.16979999999999995
vt 0.6869 0.7722
vt 0.6869 0.16979999999999995
vt 0.5585 0.7722
vt 0.6869 0.7722
vt 0.6869 0.16979999999999995
vt 0.5585 0.7722
vt 0.6869 0.16979999999999995
vt 0.5585 0.16979999999999995
vt 0.9743 0.7722
vt 0.9743 0.16979999999999995
vt 0.8458 0.16979999999999995
vt 0.9743 0.7722
vt 0.8458 0.16979999999999995
vt 0.8458 0.7722
vt 0.8458 0.04139999999999999
vt 0.6869 0.04139999999999999
vt 0.6869 0.16979999999999995
vt 0.8458 0.04139999999999999
vt 0.6869 0.16979999999999995
vt 0.8458 0.16979999999999995
vt 0.8458 0.7722
vt 0.6869 0.7722
vt 0.6869 0.9007
vt 0.8458 0.7722
vt 0.6869 0.9007
vt 0.8458 0.9007
vt 0.8458 0.16979999999999995
vt 0.6869 0.16979999999999995
vt 0.6869 0.7722
vt 0.8458 0.16979999999999995
vt 0.6869 0.7722
vt 0.8458 0.7722
vt 0.2716 0.9443
vt 0.2716 0.36349999999999993
vt 0.05 0.36349999999999993
vt 0.2716 0.9443
vt 0.05 0.36349999999999993
vt 0.05 0.9443
vt 0.2716 0.9589
vt 0.2716 0.9443
vt 0.05 0.9443
vt 0.2716 0.9589
vt 0.05 0.9443
vt 0.05 0.9589
vt 0.0354 0.9443
vt 0.05 0.9443
vt 0.05 0.36349999999999993
vt 0.0354 0.9443
vt 0.05 0.36349999999999993
vt 0.0354 0.36349999999999993
vt 0.05 0.3489
vt 0.05 0.36349999999999993
vt 0.2716 0.36349999999999993
vt 0.05 0.3489
vt 0.2716 0.36349999999999993
vt 0.2716 0.3489
vt 0.2862 0.36349999999999993
vt 0.2716 0.36349999999999993
vt 0.2716 0.9443
vt 0.2862 0.36349999999999993
vt 0.2716 0.9443
vt 0.2862 0.9443
vt 0.2716 0.9443
vt 0.05 0.9443
vt 0.05 0.36349999999999993
vt 0.2716 0.9443
vt 0.05 0.36349999999999993
vt 0.2716 0.36349999999999993
vt 0.2716 0.9589
vt 0.05 0.9589
vt 0.05 0.9443
vt 0.2716 0.9589
vt 0.05 0.9443
vt 0.2716 0.9443
vt 0.0354 0.9443
vt 0.0354 0.36349999999999993
vt 0.05 0.36349999999999993
vt 0.0354 0.9443
vt 0.05 0.36349999999999993
vt 0.05 0.9443
vt 0.05 0.3489
vt 0.2716 0.3489
vt 0.2716 0.36349999999999993
vt 0.05 0.3489
vt 0.2716 0.36349999999999993
vt 0.05 0.36349999999999993
vt 0.2862 0.36349999999999993
vt 0.2862 0.9443
vt 0.2716 0.9443
vt 0.2862 0.36349999999999993
vt 0.2716 0.9443
vt 0.2716 0.36349999999999993
vt 0.05 0.36349999999999993
vt 0.2716 0.36349999999999993
vt 0.2716 0.9443
vt 0.05 0.36349999999999993
vt 0.2716 0.9443
vt 0.05 0.9443
vt 0.05 0.9443
vt 0.2716 0.9443
vt 0.2716 0.9589
vt 0.05 0.9443
vt 0.2716 0.9589
vt 0.05 0.9589
vt 0.05 0.36349999999999993
vt 0.05 0.9443
vt 0.0354 0.9443
vt 0.05 0.36349999999999993
vt 0.0354 0.9443
vt 0.0354 0.36349999999999993
vt 0.2716 0.36349999999999993
vt 0.05 0.36349999999999993
vt 0.05 0.3489
vt 0.2716 0.36349999999999993
vt 0.05 0.3489
vt 0.2716 0.3489
vt 0.2716 0.9443
vt 0.2716 0.36349999999999993
vt 0.2862 0.36349999999999993
vt 0.2716 0.9443
vt 0.2862 0.36349999999999993
vt 0.2862 0.9443
vt 0.05 0.36349999999999993
vt 0.05 0.9443
vt 0.2716 0.9443
vt 0.05 0.36349999999999993
vt 0.2716 0.9443
vt 0.2716 0.36349999999999993
vt 0.05 0.9443
vt 0.05 0.9589
vt 0.2716 0.9589
vt 0.05 0.9443
vt 0.2716 0.9589
vt 0.2716 0.9443
vt 0.05 0.36349999999999993
vt 0.0354 0.36349999999999993
vt 0.0354 0.9443
vt 0.05 0.36349999999999993
vt 0.0354 0.9443
vt 0.05 0.9443
vt 0.2716 0.36349999999999993
vt 0.2716 0.3489
vt 0.05 0.3489
vt 0.2716 0.36349999999999993
vt 0.05 0.3489
vt 0.05 0.36349999999999993
vt 0.2716 0.9443
vt 0.2862 0.9443
vt 0.2862 0.36349999999999993
vt 0.2716 0.9443
vt 0.2862 0.36349999999999993
vt 0.2716 0.36349999999999993
vt 0.1049 0.20189999999999997
vt 0.1049 0.17769999999999997
vt 0.213 0.17769999999999997
vt 0.1049 0.20189999999999997
vt 0.213 0.17769999999999997
vt 0.213 0.20189999999999997
vt 0.1049 0.02180000000000004
vt 0.213 0.02180000000000004
vt 0.213 0.04600000000000004
vt 0.1049 0.02180000000000004
vt 0.213 0.04600000000000004
vt 0.1049 0.04600000000000004
vt 0.1049 0.04600000000000004
vt 0.213 0.04600000000000004
vt 0.213 0.17769999999999997
vt 0.1049 0.04600000000000004
vt 0.213 0.17769999999999997
vt 0.1049 0.17769999999999997
vt 0.0807 0.04600000000000004
vt 0.1049 0.04600000000000004
vt 0.1049 0.17769999999999997
vt 0.0807 0.04600000000000004
vt 0.1049 0.17769999999999997
vt 0.0807 0.17769999999999997
vt 0.213 0.3336
vt 0.1049 0.3336
vt 0.1049 0.20189999999999997
vt 0.213 0.3336
vt 0.1049 0.20189999999999997
vt 0.213 0.20189999999999997
vt 0.213 0.04600000000000004
vt 0.2372 0.04600000000000004
vt 0.2372 0.17769999999999997
vt 0.213 0.04600000000000004
vt 0.2372 0.17769999999999997
vt 0.213 0.17769999999999997
vt 0.1049 0.20189999999999997
vt 0.1049 0.17769999999999997
vt 0.213 0.17769999999999997
vt 0.1049 0.20189999999999997
vt 0.213 0.17769999999999997
vt 0.213 0.20189999999999997
vt 0.1049 0.02180000000000004
vt 0.213 0.02180000000000004
vt 0.213 0.04600000000000004
vt 0.1049 0.02180000000000004
vt 0.213 0.04600000000000004
vt 0.1049 0.04600000000000004
vt 0.1049 0.04600000000000004
vt 0.213 0.04600000000000004
vt 0.213 0.17769999999999997
vt 0.1049 0.04600000000000004
vt 0.213 0.17769999999999997
vt 0.1049 0.17769999999999997
vt 0.0807 0.04600000000000004
vt 0.1049 0.04600000000000004
vt 0.1049 0.17769999999999997
vt 0.0807 0.04600000000000004
vt 0.1049 0.17769999999999997
vt 0.0807 0.17769999999999997
vt 0.213 0.3336
vt 0.1049 0.3336
vt 0.1049 0.20189999999999997
vt 0.213 0.3336
vt 0.1049 0.20189999999999997
vt 0.213 0.20189999999999997
vt 0.213 0.04600000000000004
vt 0.2372 0.04600000000000004
vt 0.2372 0.17769999999999997
vt 0.213 0.04600000000000004
vt 0.2372 0.17769999999999997
vt 0.213 0.17769999999999997
vt 0.3153 0.1755
vt 0.4417 0.1755
vt 0.4417 0.8379
vt 0.3153 0.1755
vt 0.4417 0.8379
vt 0.3153 0.8379
vt 0.4417 0.9643
vt 0.4417 0.8379
vt 0.5284 0.8379
vt 0.4417 0.9643
vt 0.5284 0.8379
vt 0.5284 0.9643
vt 0.4417 0.1755
vt 0.4417 0.04910000000000003
vt 0.5284 0.04910000000000003
vt 0.4417 0.1755
vt 0.5284 0.04910000000000003
vt 0.5284 0.1755
vt 0.4417 0.8379
vt 0.4417 0.1755
vt 0.5284 0.1755
vt 0.4417 0.8379
vt 0.5284 0.1755
vt 0.5284 0.8379
vt 0.3153 0.1755
vt 0.3153 0.8379
vt 0.4417 0.8379
vt 0.3153 0.1755
vt 0.4417 0.8379
vt 0.4417 0.1755
vt 0.4417 0.9643
vt 0.5284 0.9643
vt 0.5284 0.8379
vt 0.4417 0.9643
vt 0.5284 0.8379
vt 0.4417 0.8379
vt 0.4417 0.1755
vt 0.5284 0.1755
vt 0.5284 0.04910000000000003
vt 0.4417 0.1755
vt 0.5284 0.04910000000000003
vt 0.4417 0.04910000000000003
vt 0.4417 0.8379
vt 0.5284 0.8379
vt 0.5284 0.1755
vt 0.4417 0.8379
vt 0.5284 0.1755
vt 0.4417 0.1755
vt 0.213 0.17769999999999997
vt 0.1049 0.17769999999999997
vt 0.1049 0.20189999999999997
vt 0.213 0.17769999999999997
vt 0.1049 0.20189999999999997
vt 0.213 0.20189999999999997
vt 0.213 0.04600000000000004
vt 0.213 0.02180000000000004
vt 0.1049 0.02180000000000004
vt 0.213 0.04600000000000004
vt 0.1049 0.02180000000000004
vt 0.1049 0.04600000000000004
vt 0.213 0.17769999999999997
vt 0.213 0.04600000000000004
vt 0.1049 0.04600000000000004
vt 0.213 0.17769999999999997
vt 0.1049 0.04600000000000004
vt 0.1049 0.17769999999999997
vt 0.1049 0.17769999999999997
vt 0.1049 0.04600000000000004
vt 0.0807 0.04600000000000004
vt 0.1049 0.17769999999999997
vt 0.0807 0.04600000000000004
vt 0.0807 0.17769999999999997
vt 0.1049 0.20189999999999997
vt 0.1049 0.3336
vt 0.213 0.3336
vt 0.1049 0.20189999999999997
vt 0.213 0.3336
vt 0.213 0.20189999999999997
vt 0.2372 0.17769999999999997
vt 0.2372 0.04600000000000004
vt 0.213 0.04600000000000004
vt 0.2372 0.17769999999999997
vt 0.213 0.04600000000000004
vt 0.213 0.17769999999999997
vt 0.213 0.17769999999999997
vt 0.1049 0.17769999999999997
vt 0.1049 0.20189999999999997
vt 0.213 0.17769999999999997
vt 0.1049 0.20189999999999997
vt 0.213 0.20189999999999997
vt 0.213 0.04600000000000004
vt 0.213 0.02180000000000004
vt 0.1049 0.02180000000000004
vt 0.213 0.04600000000000004
vt 0.1049 0.02180000000000004
vt 0.1049 0.04600000000000004
vt 0.213 0.17769999999999997
vt 0.213 0.04600000000000004
vt 0.1049 0.04600000000000004
vt 0.213 0.17769999999999997
vt 0.1049 0.04600000000000004
vt 0.1049 0.17769999999999997
vt 0.1049 0.17769999999999997
vt 0.1049 0.04600000000000004
vt 0.0807 0.04600000000000004
vt 0.1049 0.17769999999999997
vt 0.0807 0.04600000000000004
vt 0.0807 0.17769999999999997
vt 0.1049 0.20189999999999997
vt 0.1049 0.3336
vt 0.213 0.3336
vt 0.1049 0.20189999999999997
vt 0.213 0.3336
vt 0.213 0.20189999999999997
vt 0.2372 0.17769999999999997
vt 0.2372 0.04600000000000004
vt 0.213 0.04600000000000004
vt 0.2372 0.17769999999999997
vt 0.213 0.04600000000000004
vt 0.213 0.17769999999999997
vt 0.1049 0.20189999999999997
vt 0.1049 0.17769999999999997
vt 0.213 0.17769999999999997
vt 0.1049 0.20189999999999997
vt 0.213 0.17769999999999997
vt 0.213 0.20189999999999997
vt 0.1049 0.02180000000000004
vt 0.213 0.02180000000000004
vt 0.213 0.04600000000000004
vt 0.1049 0.02180000000000004
vt 0.213 0.04600000000000004
vt 0.1049 0.04600000000000004
vt 0.1049 0.04600000000000004
vt 0.213 0.04600000000000004
vt 0.213 0.17769999999999997
vt 0.1049 0.04600000000000004
vt 0.213 0.17769999999999997
vt 0.1049 0.17769999999999997
vt 0.0807 0.04600000000000004
vt 0.1049 0.04600000000000004
vt 0.1049 0.17769999999999997
vt 0.0807 0.04600000000000004
vt 0.1049 0.17769999999999997
vt 0.0807 0.17769999999999997
vt 0.213 0.3336
vt 0.1049 0.3336
vt 0.1049 0.20189999999999997
vt 0.213 0.3336
vt 0.1049 0.20189999999999997
vt 0.213 0.20189999999999997
vt 0.213 0.04600000000000004
vt 0.2372 0.04600000000000004
vt 0.2372 0.17769999999999997
vt 0.213 0.04600000000000004
vt 0.2372 0.17769999999999997
vt 0.213 0.17769999999999997
vt 0.1049 0.20189999999999997
vt 0.1049 0.17769999999999997
vt 0.213 0.17769999999999997
vt 0.1049 0.20189999999999997
vt 0.213 0.17769999999999997
vt 0.213 0.20189999999999997
vt 0.1049 0.02180000000000004
vt 0.213 0.02180000000000004
vt 0.213 0.04600000000000004
vt 0.1049 0.02180000000000004
vt 0.213 0.04600000000000004
vt 0.1049 0.04600000000000004
vt 0.1049 0.04600000000000004
vt 0.213 0.04600000000000004
vt 0.213 0.17769999999999997
vt 0.1049 0.04600000000000004
vt 0.213 0.17769999999999997
vt 0.1049 0.17769999999999997
vt 0.0807 0.04600000000000004
vt 0.1049 0.04600000000000004
vt 0.1049 0.17769999999999997
vt 0.0807 0.04600000000000004
vt 0.1049 0.17769999999999997
vt 0.0807 0.17769999999999997
vt 0.213 0.3336
vt 0.1049 0.3336
vt 0.1049 0.20189999999999997
vt 0.213 0.3336
vt 0.1049 0.20189999999999997
vt 0.213 0.20189999999999997
vt 0.213 0.04600000000000004
vt 0.2372 0.04600000000000004
vt 0.2372 0.17769999999999997
vt 0.213 0.04600000000000004
vt 0.2372 0.17769999999999997
vt 0.213 0.17769999999999997
vt 0.1049 0.20189999999999997
vt 0.1049 0.17769999999999997
vt 0.213 0.17769999999999997
vt 0.1049 0.20189999999999997
vt 0.213 0.17769999999999997
vt 0.213 0.20189999999999997
vt 0.1049 0.02180000000000004
vt 0.213 0.02180000000000004
vt 0.213 0.04600000000000004
vt 0.1049 0.02180000000000004
vt 0.213 0.04600000000000004
vt 0.1049 0.04600000000000004
vt 0.1049 0.04600000000000004
vt 0.213 0.04600000000000004
vt 0.213 0.17769999999999997
vt 0.1049 0.04600000000000004
vt 0.213 0.17769999999999997
vt 0.1049 0.17769999999999997
vt 0.0807 0.04600000000000004
vt 0.1049 0.04600000000000004
vt 0.1049 0.17769999999999997
vt 0.0807 0.04600000000000004
vt 0.1049 0.17769999999999997
vt 0.0807 0.17769999999999997
vt 0.213 0.3336
vt 0.1049 0.3336
vt 0.1049 0.20189999999999997
vt 0.213 0.3336
vt 0.1049 0.20189999999999997
vt 0.213 0.20189999999999997
vt 0.213 0.04600000000000004
vt 0.2372 0.04600000000000004
vt 0.2372 0.17769999999999997
vt 0.213 0.04600000000000004
vt 0.2372 0.17769999999999997
vt 0.213 0.17769999999999997
vt 0.1049 0.20189999999999997
vt 0.1049 0.17769999999999997
vt 0.213 0.17769999999999997
vt 0.1049 0.20189999999999997
vt 0.213 0.17769999999999997
vt 0.213 0.20189999999999997
vt 0.1049 0.02180000000000004
vt 0.213 0.02180000000000004
vt 0.213 0.04600000000000004
vt 0.1049 0.02180000000000004
vt 0.213 0.04600000000000004
vt 0.1049 0.04600000000000004
vt 0.1049 0.04600000000000004
vt 0.213 0.04600000000000004
vt 0.213 0.17769999999999997
vt 0.1049 0.04600000000000004
vt 0.213 0.17769999999999997
vt 0.1049 0.17769999999999997
vt 0.0807 0.04600000000000004
vt 0.1049 0.04600000000000004
vt 0.1049 0.17769999999999997
vt 0.0807 0.04600000000000004
vt 0.1049 0.17769999999999997
vt 0.0807 0.17769999999999997
vt 0.213 0.3336
vt 0.1049 0.3336
vt 0.1049 0.20189999999999997
vt 0.213 0.3336
vt 0.1049 0.20189999999999997
vt 0.213 0.20189999999999997
vt 0.213 0.04600000000000004
vt 0.2372 0.04600000000000004
vt 0.2372 0.17769999999999997
vt 0.213 0.04600000000000004
vt 0.2372 0.17769999999999997
vt 0.213 0.17769999999999997
vt 0.1049 0.20189999999999997
vt 0.1049 0.17769999999999997
vt 0.213 0.17769999999999997
vt 0.1049 0.20189999999999997
vt 0.213 0.17769999999999997
vt 0.213 0.20189999999999997
vt 0.1049 0.02180000000000004
vt 0.213 0.02180000000000004
vt 0.213 0.04600000000000004
vt 0.1049 0.02180000000000004
vt 0.213 0.04600000000000004
vt 0.1049 0.04600000000000004
vt 0.1049 0.04600000000000004
vt 0.213 0.04600000000000004
vt 0.213 0.17769999999999997
vt 0.1049 0.04600000000000004
vt 0.213 0.17769999999999997
vt 0.1049 0.17769999999999997
vt 0.0807 0.04600000000000004
vt 0.1049 0.04600000000000004
vt 0.1049 0.17769999999999997
vt 0.0807 0.04600000000000004
vt 0.1049 0.17769999999999997
vt 0.0807 0.17769999999999997
vt 0.213 0.3336
vt 0.1049 0.3336
vt 0.1049 0.20189999999999997
vt 0.213 0.3336
vt 0.1049 0.20189999999999997
vt 0.213 0.20189999999999997
vt 0.213 0.04600000000000004
vt 0.2372 0.04600000000000004
vt 0.2372 0.17769999999999997
vt 0.213 0.04600000000000004
vt 0.2372 0.17769999999999997
vt 0.213 0.17769999999999997
vt 0.1049 0.20189999999999997
vt 0.1049 0.17769999999999997
vt 0.213 0.17769999999999997
vt 0.1049 0.20189999999999997
vt 0.213 0.17769999999999997
vt 0.213 0.20189999999999997
vt 0.1049 0.02180000000000004
vt 0.213 0.02180000000000004
vt 0.213 0.04600000000000004
vt 0.1049 0.02180000000000004
vt 0.213 0.04600000000000004
vt 0.1049 0.04600000000000004
vt 0.1049 0.04600000000000004
vt 0.213 0.04600000000000004
vt 0.213 0.17769999999999997
vt 0.1049 0.04600000000000004
vt 0.213 0.17769999999999997
vt 0.1049 0.17769999999999997
vt 0.0807 0.04600000000000004
vt 0.1049 0.04600000000000004
vt 0.1049 0.17769999999999997
vt 0.0807 0.04600000000000004
vt 0.1049 0.17769999999999997
vt 0.0807 0.17769999999999997
vt 0.213 0.3336
vt 0.1049 0.3336
vt 0.1049 0.20189999999999997
vt 0.213 0.3336
vt 0.1049 0.20189999999999997
vt 0.213 0.20189999999999997
vt 0.213 0.04600000000000004
vt 0.2372 0.04600000000000004
vt 0.2372 0.17769999999999997
vt 0.213 0.04600000000000004
vt 0.2372 0.17769999999999997
vt 0.213 0.17769999999999997
vt 0.213 0.17769999999999997
vt 0.1049 0.17769999999999997
vt 0.1049 0.20189999999999997
vt 0.213 0.17769999999999997
vt 0.1049 0.20189999999999997
vt 0.213 0.20189999999999997
vt 0.213 0.04600000000000004
vt 0.213 0.02180000000000004
vt 0.1049 0.02180000000000004
vt 0.213 0.04600000000000004
vt 0.1049 0.02180000000000004
vt 0.1049 0.04600000000000004
vt 0.213 0.17769999999999997
vt 0.213 0.04600000000000004
vt 0.1049 0.04600000000000004
vt 0.213 0.17769999999999997
vt 0.1049 0.04600000000000004
vt 0.1049 0.17769999999999997
vt 0.1049 0.17769999999999997
vt 0.1049 0.04600000000000004
vt 0.0807 0.04600000000000004
vt 0.1049 0.17769999999999997
vt 0.0807 0.04600000000000004
vt 0.0807 0.17769999999999997
vt 0.1049 0.20189999999999997
vt 0.1049 0.3336
vt 0.213 0.3336
vt 0.1049 0.20189999999999997
vt 0.213 0.3336
vt 0.213 0.20189999999999997
vt 0.2372 0.17769999999999997
vt 0.2372 0.04600000000000004
vt 0.213 0.04600000000000004
vt 0.2372 0.17769999999999997
vt 0.213 0.04600000000000004
vt 0.213 0.17769999999999997
vt 0.213 0.17769999999999997
vt 0.1049 0.17769999999999997
vt 0.1049 0.20189999999999997
vt 0.213 0.17769999999999997
vt 0.1049 0.20189999999999997
vt 0.213 0.20189999999999997
vt 0.213 0.04600000000000004
vt 0.213 0.02180000000000004
vt 0.1049 0.02180000000000004
vt 0.213 0.04600000000000004
vt 0.1049 0.02180000000000004
vt 0.1049 0.04600000000000004
vt 0.213 0.17769999999999997
vt 0.213 0.04600000000000004
vt 0.1049 0.04600000000000004
vt 0.213 0.17769999999999997
vt 0.1049 0.04600000000000004
vt 0.1049 0.17769999999999997
vt 0.1049 0.17769999999999997
vt 0.1049 0.04600000000000004
vt 0.0807 0.04600000000000004
vt 0.1049 0.17769999999999997
vt 0.0807 0.04600000000000004
vt 0.0807 0.17769999999999997
vt 0.1049 0.20189999999999997
vt 0.1049 0.3336
vt 0.213 0.3336
vt 0.1049 0.20189999999999997
vt 0.213 0.3336
vt 0.213 0.20189999999999997
vt 0.2372 0.17769999999999997
vt 0.2372 0.04600000000000004
vt 0.213 0.04600000000000004
vt 0.2372 0.17769999999999997
vt 0.213 0.04600000000000004
vt 0.213 0.17769999999999997
vt 0.213 0.17769999999999997
vt 0.1049 0.17769999999999997
vt 0.1049 0.20189999999999997
vt 0.213 0.17769999999999997
vt 0.1049 0.20189999999999997
vt 0.213 0.20189999999999997
vt 0.213 0.04600000000000004
vt 0.213 0.02180000000000004
vt 0.1049 0.02180000000000004
vt 0.213 0.04600000000000004
vt 0.1049 0.02180000000000004
vt 0.1049 0.04600000000000004
vt 0.213 0.17769999999999997
vt 0.213 0.04600000000000004
vt 0.1049 0.04600000000000004
vt 0.213 0.17769999999999997
vt 0.1049 0.04600000000000004
vt 0.1049 0.17769999999999997
vt 0.1049 0.17769999999999997
vt 0.1049 0.04600000000000004
vt 0.0807 0.04600000000000004
vt 0.1049 0.17769999999999997
vt 0.0807 0.04600000000000004
vt 0.0807 0.17769999999999997
vt 0.1049 0.20189999999999997
vt 0.1049 0.3336
vt 0.213 0.3336
vt 0.1049 0.20189999999999997
vt 0.213 0.3336
vt 0.213 0.20189999999999997
vt 0.2372 0.17769999999999997
vt 0.2372 0.04600000000000004
vt 0.213 0.04600000000000004
vt 0.2372 0.17769999999999997
vt 0.213 0.04600000000000004
vt 0.213 0.17769999999999997
vt 0.213 0.17769999999999997
vt 0.1049 0.17769999999999997
vt 0.1049 0.20189999999999997
vt 0.213 0.17769999999999997
vt 0.1049 0.20189999999999997
vt 0.213 0.20189999999999997
vt 0.213 0.04600000000000004
vt 0.213 0.02180000000000004
vt 0.1049 0.02180000000000004
vt 0.213 0.04600000000000004
vt 0.1049 0.02180000000000004
vt 0.1049 0.04600000000000004
vt 0.213 0.17769999999999997
vt 0.213 0.04600000000000004
vt 0.1049 0.04600000000000004
vt 0.213 0.17769999999999997
vt 0.1049 0.04600000000000004
vt 0.1049 0.17769999999999997
vt 0.1049 0.17769999999999997
vt 0.1049 0.04600000000000004
vt 0.0807 0.04600000000000004
vt 0.1049 0.17769999999999997
vt 0.0807 0.04600000000000004
vt 0.0807 0.17769999999999997
vt 0.1049 0.20189999999999997
vt 0.1049 0.3336
vt 0.213 0.3336
vt 0.1049 0.20189999999999997
vt 0.213 0.3336
vt 0.213 0.20189999999999997
vt 0.2372 0.17769999999999997
vt 0.2372 0.04600000000000004
vt 0.213 0.04600000000000004
vt 0.2372 0.17769999999999997
vt 0.213 0.04600000000000004
vt 0.213 0.17769999999999997
vt 0.213 0.17769999999999997
vt 0.1049 0.17769999999999997
vt 0.1049 0.20189999999999997
vt 0.213 0.17769999999999997
vt 0.1049 0.20189999999999997
vt 0.213 0.20189999999999997
vt 0.213 0.04600000000000004
vt 0.213 0.02180000000000004
vt 0.1049 0.02180000000000004
vt 0.213 0.04600000000000004
vt 0.1049 0.02180000000000004
vt 0.1049 0.04600000000000004
vt 0.213 0.17769999999999997
vt 0.213 0.04600000000000004
vt 0.1049 0.04600000000000004
vt 0.213 0.17769999999999997
vt 0.1049 0.04600000000000004
vt 0.1049 0.17769999999999997
vt 0.1049 0.17769999999999997
vt 0.1049 0.04600000000000004
vt 0.0807 0.04600000000000004
vt 0.1049 0.17769999999999997
vt 0.0807 0.04600000000000004
vt 0.0807 0.17769999999999997
vt 0.1049 0.20189999999999997
vt 0.1049 0.3336
vt 0.213 0.3336
vt 0.1049 0.20189999999999997
vt 0.213 0.3336
vt 0.213 0.20189999999999997
vt 0.2372 0.17769999999999997
vt 0.2372 0.04600000000000004
vt 0.213 0.04600000000000004
vt 0.2372 0.17769999999999997
vt 0.213 0.04600000000000004
vt 0.213 0.17769999999999997
vt 0.213 0.17769999999999997
vt 0.1049 0.17769999999999997
vt 0.1049 0.20189999999999997
vt 0.213 0.17769999999999997
vt 0.1049 0.20189999999999997
vt 0.213 0.20189999999999997
vt 0.213 0.04600000000000004
vt 0.213 0.02180000000000004
vt 0.1049 0.02180000000000004
vt 0.213 0.04600000000000004
vt 0.1049 0.02180000000000004
vt 0.1049 0.04600000000000004
vt 0.213 0.17769999999999997
vt 0.213 0.04600000000000004
vt 0.1049 0.04600000000000004
vt 0.213 0.17769999999999997
vt 0.1049 0.04600000000000004
vt 0.1049 0.17769999999999997
vt 0.1049 0.17769999999999997
vt 0.1049 0.04600000000000004
vt 0.0807 0.04600000000000004
vt 0.1049 0.17769999999999997
vt 0.0807 0.04600000000000004
vt 0.0807 0.17769999999999997
vt 0.1049 0.20189999999999997
vt 0.1049 0.3336
vt 0.213 0.3336
vt 0.1049 0.20189999999999997
vt 0.213 0.3336
vt 0.213 0.20189999999999997
vt 0.2372 0.17769999999999997
vt 0.2372 0.04600000000000004
vt 0.213 0.04600000000000004
vt 0.2372 0.17769999999999997
vt 0.213 0.04600000000000004
vt 0.213 0.17769999999999997
vt 0.213 0.17769999999999997
vt 0.1049 0.17769999999999997
vt 0.1049 0.20189999999999997
vt 0.213 0.17769999999999997
vt 0.1049 0.20189999999999997
vt 0.213 0.20189999999999997
vt 0.213 0.04600000000000004
vt 0.213 0.02180000000000004
vt 0.1049 0.02180000000000004
vt 0.213 0.04600000000000004
vt 0.1049 0.02180000000000004
vt 0.1049 0.04600000000000004
vt 0.213 0.17769999999999997
vt 0.213 0.04600000000000004
vt 0.1049 0.04600000000000004
vt 0.213 0.17769999999999997
vt 0.1049 0.04600000000000004
vt 0.1049 0.17769999999999997
vt 0.1049 0.17769999999999997
vt 0.1049 0.04600000000000004
vt 0.0807 0.04600000000000004
vt 0.1049 0.17769999999999997
vt 0.0807 0.04600000000000004
vt 0.0807 0.17769999999999997
vt 0.1049 0.20189999999999997
vt 0.1049 0.3336
vt 0.213 0.3336
vt 0.1049 0.20189999999999997
vt 0.213 0.3336
vt 0.213 0.20189999999999997
vt 0.2372 0.17769999999999997
vt 0.2372 0.04600000000000004
vt 0.213 0.04600000000000004
vt 0.2372 0.17769999999999997
vt 0.213 0.04600000000000004
vt 0.213 0.17769999999999997
vt 0.213 0.17769999999999997
vt 0.1049 0.17769999999999997
vt 0.1049 0.20189999999999997
vt 0.213 0.17769999999999997
vt 0.1049 0.20189999999999997
vt 0.213 0.20189999999999997
vt 0.213 0.04600000000000004
vt 0.213 0.02180000000000004
vt 0.1049 0.02180000000000004
vt 0.213 0.04600000000000004
vt 0.1049 0.02180000000000004
vt 0.1049 0.04600000000000004
vt 0.213 0.17769999999999997
vt 0.213 0.04600000000000004
vt 0.1049 0.04600000000000004
vt 0.213 0.17769999999999997
vt 0.1049 0.04600000000000004
vt 0.1049 0.17769999999999997
vt 0.1049 0.17769999999999997
vt 0.1049 0.04600000000000004
vt 0.0807 0.04600000000000004
vt 0.1049 0.17769999999999997
vt 0.0807 0.04600000000000004
vt 0.0807 0.17769999999999997
vt 0.1049 0.20189999999999997
vt 0.1049 0.3336
vt 0.213 0.3336
vt 0.1049 0.20189999999999997
vt 0.213 0.3336
vt 0.213 0.20189999999999997
vt 0.2372 0.17769999999999997
vt 0.2372 0.04600000000000004
vt 0.213 0.04600000000000004
vt 0.2372 0.17769999999999997
vt 0.213 0.04600000000000004
vt 0.213 0.17769999999999997
vt 0.1049 0.20189999999999997
vt 0.1049 0.17769999999999997
vt 0.213 0.17769999999999997
vt 0.1049 0.20189999999999997
vt 0.213 0.17769999999999997
vt 0.213 0.20189999999999997
vt 0.1049 0.02180000000000004
vt 0.213 0.02180000000000004
vt 0.213 0.04600000000000004
vt 0.1049 0.02180000000000004
vt 0.213 0.04600000000000004
vt 0.1049 0.04600000000000004
vt 0.1049 0.04600000000000004
vt 0.213 0.04600000000000004
vt 0.213 0.17769999999999997
vt 0.1049 0.04600000000000004
vt 0.213 0.17769999999999997
vt 0.1049 0.17769999999999997
vt 0.0807 0.04600000000000004
vt 0.1049 0.04600000000000004
vt 0.1049 0.17769999999999997
vt 0.0807 0.04600000000000004
vt 0.1049 0.17769999999999997
vt 0.0807 0.17769999999999997
vt 0.213 0.3336
vt 0.1049 0.3336
vt 0.1049 0.20189999999999997
vt 0.213 0.3336
vt 0.1049 0.20189999999999997
vt 0.213 0.20189999999999997
vt 0.213 0.04600000000000004
vt 0.2372 0.04600000000000004
vt 0.2372 0.17769999999999997
vt 0.213 0.04600000000000004
vt 0.2372 0.17769999999999997
vt 0.213 0.17769999999999997
vt 0.1049 0.20189999999999997
vt 0.1049 0.17769999999999997
vt 0.213 0.17769999999999997
vt 0.1049 0.20189999999999997
vt 0.213 0.17769999999999997
vt 0.213 0.20189999999999997
vt 0.1049 0.02180000000000004
vt 0.213 0.02180000000000004
vt 0.213 0.04600000000000004
vt 0.1049 0.02180000000000004
vt 0.213 0.04600000000000004
vt 0.1049 0.04600000000000004
vt 0.1049 0.04600000000000004
vt 0.213 0.04600000000000004
vt 0.213 0.17769999999999997
vt 0.1049 0.04600000000000004
vt 0.213 0.17769999999999997
vt 0.1049 0.17769999999999997
vt 0.0807 0.04600000000000004
vt 0.1049 0.04600000000000004
vt 0.1049 0.17769999999999997
vt 0.0807 0.04600000000000004
vt 0.1049 0.17769999999999997
vt 0.0807 0.17769999999999997
vt 0.213 0.3336
vt 0.1049 0.3336
vt 0.1049 0.20189999999999997
vt 0.213 0.3336
vt 0.1049 0.20189999999999997
vt 0.213 0.20189999999999997
vt 0.213 0.04600000000000004
vt 0.2372 0.04600000000000004
vt 0.2372 0.17769999999999997
vt 0.213 0.04600000000000004
vt 0.2372 0.17769999999999997
vt 0.213 0.17769999999999997
vt 0.1049 0.20189999999999997
vt 0.1049 0.17769999999999997
vt 0.213 0.17769999999999997
vt 0.1049 0.20189999999999997
vt 0.213 0.17769999999999997
vt 0.213 0.20189999999999997
vt 0.1049 0.02180000000000004
vt 0.213 0.02180000000000004
vt 0.213 0.04600000000000004
vt 0.1049 0.02180000000000004
vt 0.213 0.04600000000000004
vt 0.1049 0.04600000000000004
vt 0.1049 0.04600000000000004
vt 0.213 0.04600000000000004
vt 0.213 0.17769999999999997
vt 0.1049 0.04600000000000004
vt 0.213 0.17769999999999997
vt 0.1049 0.17769999999999997
vt 0.0807 0.04600000000000004
vt 0.1049 0.04600000000000004
vt 0.1049 0.17769999999999997
vt 0.0807 0.04600000000000004
vt 0.1049 0.17769999999999997
vt 0.0807 0.17769999999999997
vt 0.213 0.3336
vt 0.1049 0.3336
vt 0.1049 0.20189999999999997
vt 0.213 0.3336
vt 0.1049 0.20189999999999997
vt 0.213 0.20189999999999997
vt 0.213 0.04600000000000004
vt 0.2372 0.04600000000000004
vt 0.2372 0.17769999999999997
vt 0.213 0.04600000000000004
vt 0.2372 0.17769999999999997
vt 0.213 0.17769999999999997
vt 0.1049 0.20189999999999997
vt 0.1049 0.17769999999999997
vt 0.213 0.17769999999999997
vt 0.1049 0.20189999999999997
vt 0.213 0.17769999999999997
vt 0.213 0.20189999999999997
vt 0.1049 0.02180000000000004
vt 0.213 0.02180000000000004
vt 0.213 0.04600000000000004
vt 0.1049 0.02180000000000004
vt 0.213 0.04600000000000004
vt 0.1049 0.04600000000000004
vt 0.1049 0.04600000000000004
vt 0.213 0.04600000000000004
vt 0.213 0.17769999999999997
vt 0.1049 0.04600000000000004
vt 0.213 0.17769999999999997
vt 0.1049 0.17769999999999997
vt 0.0807 0.04600000000000004
vt 0.1049 0.04600000000000004
vt 0.1049 0.17769999999999997
vt 0.0807 0.04600000000000004
vt 0.1049 0.17769999999999997
vt 0.0807 0.17769999999999997
vt 0.213 0.3336
vt 0.1049 0.3336
vt 0.1049 0.20189999999999997
vt 0.213 0.3336
vt 0.1049 0.20189999999999997
vt 0.213 0.20189999999999997
vt 0.213 0.04600000000000004
vt 0.2372 0.04600000000000004
vt 0.2372 0.17769999999999997
vt 0.213 0.04600000000000004
vt 0.2372 0.17769999999999997
vt 0.213 0.17769999999999997
vt 0.3153 0.1755
vt 0.4417 0.1755
vt 0.4417 0.8379
vt 0.3153 0.1755
vt 0.4417 0.8379
vt 0.3153 0.8379
vt 0.4417 0.9643
vt 0.4417 0.8379
vt 0.5284 0.8379
vt 0.4417 0.9643
vt 0.5284 0.8379
vt 0.5284 0.9643
vt 0.4417 0.1755
vt 0.4417 0.04910000000000003
vt 0.5284 0.04910000000000003
vt 0.4417 0.1755
vt 0.5284 0.04910000000000003
vt 0.5284 0.1755
vt 0.4417 0.8379
vt 0.4417 0.1755
vt 0.5284 0.1755
vt 0.4417 0.8379
vt 0.5284 0.1755
vt 0.5284 0.8379
vt 0.3153 0.1755
vt 0.3153 0.8379
vt 0.4417 0.8379
vt 0.3153 0.1755
vt 0.4417 0.8379
vt 0.4417 0.1755
vt 0.4417 0.9643
vt 0.5284 0.9643
vt 0.5284 0.8379
vt 0.4417 0.9643
vt 0.5284 0.8379
vt 0.4417 0.8379
vt 0.4417 0.1755
vt 0.5284 0.1755
vt 0.5284 0.04910000000000003
vt 0.4417 0.1755
vt 0.5284 0.04910000000000003
vt 0.4417 0.04910000000000003
vt 0.4417 0.8379
vt 0.5284 0.8379
vt 0.5284 0.1755
vt 0.4417 0.8379
vt 0.5284 0.1755
vt 0.4417 0.1755
vt 0.213 0.17769999999999997
vt 0.1049 0.17769999999999997
vt 0.1049 0.20189999999999997
vt 0.213 0.17769999999999997
vt 0.1049 0.20189999999999997
vt 0.213 0.20189999999999997
vt 0.213 0.04600000000000004
vt 0.213 0.02180000000000004
vt 0.1049 0.02180000000000004
vt 0.213 0.04600000000000004
vt 0.1049 0.02180000000000004
vt 0.1049 0.04600000000000004
vt 0.213 0.17769999999999997
vt 0.213 0.04600000000000004
vt 0.1049 0.04600000000000004
vt 0.213 0.17769999999999997
vt 0.1049 0.04600000000000004
vt 0.1049 0.17769999999999997
vt 0.1049 0.17769999999999997
vt 0.1049 0.04600000000000004
vt 0.0807 0.04600000000000004
vt 0.1049 0.17769999999999997
vt 0.0807 0.04600000000000004
vt 0.0807 0.17769999999999997
vt 0.1049 0.20189999999999997
vt 0.1049 0.3336
vt 0.213 0.3336
vt 0.1049 0.20189999999999997
vt 0.213 0.3336
vt 0.213 0.20189999999999997
vt 0.2372 0.17769999999999997
vt 0.2372 0.04600000000000004
vt 0.213 0.04600000000000004
vt 0.2372 0.17769999999999997
vt 0.213 0.04600000000000004
vt 0.213 0.17769999999999997
vt 0.213 0.17769999999999997
vt 0.1049 0.17769999999999997
vt 0.1049 0.20189999999999997
vt 0.213 0.17769999999999997
vt 0.1049 0.20189999999999997
vt 0.213 0.20189999999999997
vt 0.213 0.04600000000000004
vt 0.213 0.02180000000000004
vt 0.1049 0.02180000000000004
vt 0.213 0.04600000000000004
vt 0.1049 0.02180000000000004
vt 0.1049 0.04600000000000004
vt 0.213 0.17769999999999997
vt 0.213 0.04600000000000004
vt 0.1049 0.04600000000000004
vt 0.213 0.17769999999999997
vt 0.1049 0.04600000000000004
vt 0.1049 0.17769999999999997
vt 0.1049 0.17769999999999997
vt 0.1049 0.04600000000000004
vt 0.0807 0.04600000000000004
vt 0.1049 0.17769999999999997
vt 0.0807 0.04600000000000004
vt 0.0807 0.17769999999999997
vt 0.1049 0.20189999999999997
vt 0.1049 0.3336
vt 0.213 0.3336
vt 0.1049 0.20189999999999997
vt 0.213 0.3336
vt 0.213 0.20189999999999997
vt 0.2372 0.17769999999999997
vt 0.2372 0.04600000000000004
vt 0.213 0.04600000000000004
vt 0.2372 0.17769999999999997
vt 0.213 0.04600000000000004
vt 0.213 0.17769999999999997
vn 0 1 0
vn 0 1 0
vn 0 -1 0
vn 0 -1 0
vn 0 0 -1
vn 0 0 -1
vn 0 0 1
vn 0 0 1
vn -1 0 0
vn -1 0 0
vn 0 1 0
vn 0 1 0
vn 0 -1 0
vn 0 -1 0
vn 0 0 -1
vn 0 0 -1
vn 0 0 1
vn 0 0 1
vn 1 0 0
vn 1 0 0
vn -0.33759696618842433 0.9412907565786313 0
vn -0.33759696618842433 0.9412907565786313 0
vn 0 0 1
vn 0 0 1
vn -0.9412923334084533 -0.33759256962567935 0
vn -0.9412880921140356 -0.337604395179039 -3.3760439518874707e-7
vn 0 0 -1
vn 0 0 -1
vn 0.9412880921140897 0.3376043951790576 0
vn 0.9412923334083997 0.3375925696256601 3.3759256961662775e-7
vn 0.33759696618842416 -0.9412907565786313 0
vn 0.33759696618842416 -0.9412907565786313 0
vn 0 0 1
vn 0 0 1
vn -0.941292333408401 -0.3375925696256564 -3.375925696353642e-7
vn -0.9412880921140906 -0.33760439517905455 0
vn 0 0 -1
vn 0 0 -1
vn 0.9412880921140373 0.3376043951790347 3.3760439517000196e-7
vn 0.9412923334084546 0.3375925696256757 0
vn 0.3375969661884244 0.9412907565786313 0
vn 0.3375969661884244 0.9412907565786313 0
vn 0 0 1
vn 0 0 1
vn 0.9413041581453241 -0.33755959749105463 0
vn 0.9412999176260719 -0.33757142218653036 -3.375714221963768e-7
vn 0 0 -1
vn 0 0 -1
vn -0.9412880921140905 0.33760439517905494 0
vn -0.9412923334084006 0.3375925696256575 3.375925696171989e-7
vn -0.3375969661884242 -0.9412907565786313 0
vn -0.3375969661884242 -0.9412907565786313 0
vn 0 0 1
vn 0 0 1
vn 0.9412805078137192 -0.3376255405176465 -3.3762554052719485e-7
vn 0.9412762657442186 -0.33763736692880914 0
vn 0 0 -1
vn 0 0 -1
vn -0.9412880921140369 0.33760439517903573 3.3760439517057683e-7
vn -0.9412923334084543 0.33759256962567674 0
vn 0.32421349496912066 -0.9459839373265848 0
vn 0.32421349496912066 -0.9459839373265848 0
vn -0.3242055576924556 0.9459866576021693 0
vn -0.3242055576924556 0.9459866576021693 0
vn 0 0 1
vn 0 0 1
vn 0.9459892273104462 0.32419805954475583 0
vn 0.9459892273104462 0.32419805954475583 0
vn 0 0 -1
vn 0 0 -1
vn -0.9459827126606131 -0.32421706825407565 0
vn -0.9459827126606131 -0.32421706825407565 0
vn 0.32421349496912066 -0.9459839373265848 0
vn 0.32421349496912066 -0.9459839373265848 0
vn -0.3242055576924556 0.9459866576021693 0
vn -0.3242055576924556 0.9459866576021693 0
vn 0 0 1
vn 0 0 1
vn 0.9459892273104463 0.32419805954475583 0
vn 0.9459892273104463 0.32419805954475583 0
vn 0 0 -1
vn 0 0 -1
vn -0.9459827126606131 -0.3242170682540756 0
vn -0.9459827126606131 -0.3242170682540756 0
vn 0 1 0
vn 0 1 0
vn 0 0 1
vn 0 0 1
vn 0 0 -1
vn 0 0 -1
vn -1 0 0
vn -1 0 0
vn 0 1 0
vn 0 1 0
vn 0 0 1
vn 0 0 1
vn 0 0 -1
vn 0 0 -1
vn 1 0 0
vn 1 0 0
vn -0.3242134949691209 -0.9459839373265848 0
vn -0.3242134949691209 -0.9459839373265848 0
vn 0.3242055576924554 0.9459866576021694 0
vn 0.3242055576924554 0.9459866576021694 0
vn 0 0 1
vn 0 0 1
vn -0.9459892273104465 0.3241980595447548 0
vn -0.9459892273104465 0.3241980595447548 0
vn 0 0 -1
vn 0 0 -1
vn 0.9459827126606131 -0.32421706825407565 0
vn 0.9459827126606131 -0.32421706825407565 0
vn -0.32421349496912094 -0.9459839373265848 0
vn -0.32421349496912094 -0.9459839373265848 0
vn 0.3242055576924554 0.9459866576021694 0
vn 0.3242055576924554 0.9459866576021694 0
vn 0 0 1
vn 0 0 1
vn -0.9459892273104465 0.3241980595447547 0
vn -0.9459892273104465 0.3241980595447547 0
vn 0 0 -1
vn 0 0 -1
vn 0.9459827126606131 -0.3242170682540756 0
vn 0.9459827126606131 -0.3242170682540756 0
vn -0.324209967170565 -0.945985146388283 0
vn -0.324209967170565 -0.945985146388283 0
vn 0.3242016986096194 0.9459879801660472 0
vn 0.3242016986096194 0.9459879801660472 0
vn 0 0 -1
vn 0 0 -1
vn -0.94598485268499 0.32421082414157293 0
vn -0.94598485268499 0.32421082414157293 0
vn 0 0 1
vn 0 0 1
vn 0.9459837141151302 -0.3242141462505051 0
vn 0.9459837141151302 -0.3242141462505051 0
vn -0.324209967170565 -0.945985146388283 0
vn -0.324209967170565 -0.945985146388283 0
vn 0.3242016986096194 0.9459879801660472 0
vn 0.3242016986096194 0.9459879801660472 0
vn 0 0 -1
vn 0 0 -1
vn -0.94598485268499 0.32421082414157293 0
vn -0.94598485268499 0.32421082414157293 0
vn 0 0 1
vn 0 0 1
vn 0.9459837141151302 -0.3242141462505051 0
vn 0.9459837141151302 -0.3242141462505051 0
vn -0.324209967170565 -0.945985146388283 0
vn -0.324209967170565 -0.945985146388283 0
vn 0.3242016986096194 0.9459879801660472 0
vn 0.3242016986096194 0.9459879801660472 0
vn 0 0 -1
vn 0 0 -1
vn -0.94598485268499 0.32421082414157293 0
vn -0.94598485268499 0.32421082414157293 0
vn 0 0 1
vn 0 0 1
vn 0.9459837141151302 -0.3242141462505051 0
vn 0.9459837141151302 -0.3242141462505051 0
vn -0.32420996717056505 -0.9459851463882831 0
vn -0.32420996717056505 -0.9459851463882831 0
vn 0.32420169860961934 0.9459879801660471 0
vn 0.32420169860961934 0.9459879801660471 0
vn 0 0 -1
vn 0 0 -1
vn -0.9459848526849899 0.32421082414157293 0
vn -0.9459848526849899 0.32421082414157293 0
vn 0 0 1
vn 0 0 1
vn 0.94598371411513 -0.3242141462505051 0
vn 0.94598371411513 -0.3242141462505051 0
vn 0.32421401469956207 -0.945983759201178 0
vn 0.32421401469956207 -0.945983759201178 0
vn -0.324214014699562 0.945983759201178 0
vn -0.324214014699562 0.945983759201178 0
vn 0 0 1
vn 0 0 1
vn 0.9459865849310747 0.32420576973651005 0
vn 0.9459865849310747 0.32420576973651005 0
vn 0 0 -1
vn 0 0 -1
vn -0.9459865849310747 -0.32420576973651005 0
vn -0.9459865849310747 -0.32420576973651005 0
vn 0.32421401469956207 -0.945983759201178 0
vn 0.32421401469956207 -0.945983759201178 0
vn -0.324214014699562 0.945983759201178 0
vn -0.324214014699562 0.945983759201178 0
vn 0 0 1
vn 0 0 1
vn 0.9459871785931138 0.32420403750946813 0
vn 0.9459871785931138 0.32420403750946813 0
vn 0 0 -1
vn 0 0 -1
vn -0.9459871785931138 -0.32420403750946813 0
vn -0.9459871785931138 -0.32420403750946813 0
vn -0.3242038090743156 -0.9459872568812463 0
vn -0.3242038090743156 -0.9459872568812463 0
vn 0.3242078566751985 0.9459858696989475 0
vn 0.3242078566751985 0.9459858696989475 0
vn 0 0 1
vn 0 0 1
vn -0.9459854463644526 0.32420909189386937 0
vn -0.9459854463644526 0.32420909189386937 0
vn 0 0 -1
vn 0 0 -1
vn 0.9459831204182437 -0.3242158785188699 0
vn 0.9459831204182437 -0.3242158785188699 0
vn -0.32420380907431556 -0.9459872568812463 0
vn -0.32420380907431556 -0.9459872568812463 0
vn 0.3242078566751985 0.9459858696989475 0
vn 0.3242078566751985 0.9459858696989475 0
vn 0 0 1
vn 0 0 1
vn -0.9459854463644526 0.32420909189386937 0
vn -0.9459854463644526 0.32420909189386937 0
vn 0 0 -1
vn 0 0 -1
vn 0.9459831204182437 -0.32421587851886996 0
vn 0.9459831204182437 -0.32421587851886996 0
vn -0.32420380907431556 -0.9459872568812463 0
vn -0.32420380907431556 -0.9459872568812463 0
vn 0.32420785667519847 0.9459858696989475 0
vn 0.32420785667519847 0.9459858696989475 0
vn 0 0 1
vn 0 0 1
vn -0.9459854463644527 0.3242090918938694 0
vn -0.9459854463644527 0.3242090918938694 0
vn 0 0 -1
vn 0 0 -1
vn 0.9459831204182437 -0.32421587851886985 0
vn 0.9459831204182437 -0.32421587851886985 0
vn -0.3242038090743156 -0.9459872568812463 0
vn -0.3242038090743156 -0.9459872568812463 0
vn 0.3242078566751985 0.9459858696989475 0
vn 0.3242078566751985 0.9459858696989475 0
vn 0 0 1
vn 0 0 1
vn -0.9459854463644526 0.32420909189386937 0
vn -0.9459854463644526 0.32420909189386937 0
vn 0 0 -1
vn 0 0 -1
vn 0.9459831204182437 -0.3242158785188699 0
vn 0.9459831204182437 -0.3242158785188699 0
vn 0.3242078566751985 -0.9459858696989476 0
vn 0.3242078566751985 -0.9459858696989476 0
vn -0.32420169860961945 0.9459879801660472 0
vn -0.32420169860961945 0.9459879801660472 0
vn 0 0 -1
vn 0 0 -1
vn 0.9459848526849898 0.3242108241415734 0
vn 0.9459848526849898 0.3242108241415734 0
vn 0 0 1
vn 0 0 1
vn -0.9459854463644525 -0.3242090918938698 0
vn -0.9459854463644525 -0.3242090918938698 0
vn 0.3242078566751985 -0.9459858696989476 0
vn 0.3242078566751985 -0.9459858696989476 0
vn -0.32420169860961945 0.9459879801660472 0
vn -0.32420169860961945 0.9459879801660472 0
vn 0 0 -1
vn 0 0 -1
vn 0.9459848526849898 0.3242108241415734 0
vn 0.9459848526849898 0.3242108241415734 0
vn 0 0 1
vn 0 0 1
vn -0.9459854463644525 -0.3242090918938698 0
vn -0.9459854463644525 -0.3242090918938698 0
vn 0.3242078566751985 -0.9459858696989476 0
vn 0.3242078566751985 -0.9459858696989476 0
vn -0.32420169860961945 0.9459879801660472 0
vn -0.32420169860961945 0.9459879801660472 0
vn 0 0 -1
vn 0 0 -1
vn 0.9459848526849898 0.3242108241415734 0
vn 0.9459848526849898 0.3242108241415734 0
vn 0 0 1
vn 0 0 1
vn -0.9459854463644525 -0.3242090918938698 0
vn -0.9459854463644525 -0.3242090918938698 0
vn 0.32420785667519847 -0.9459858696989475 0
vn 0.32420785667519847 -0.9459858696989475 0
vn -0.3242016986096194 0.9459879801660471 0
vn -0.3242016986096194 0.9459879801660471 0
vn 0 0 -1
vn 0 0 -1
vn 0.9459848526849898 0.3242108241415733 0
vn 0.9459848526849898 0.3242108241415733 0
vn 0 0 1
vn 0 0 1
vn -0.9459854463644526 -0.32420909189386987 0
vn -0.9459854463644526 -0.32420909189386987 0
vn 0.32420169860961934 -0.9459879801660471 0
vn 0.32420169860961934 -0.9459879801660471 0
vn -0.3242078566751986 0.9459858696989475 0
vn -0.3242078566751986 0.9459858696989475 0
vn 0 0 1
vn 0 0 1
vn 0.9459854463644526 0.32420909189386987 0
vn 0.9459854463644526 0.32420909189386987 0
vn 0 0 -1
vn 0 0 -1
vn -0.9459848526849898 -0.3242108241415734 0
vn -0.9459848526849898 -0.3242108241415734 0
vn 0.3242016986096193 -0.9459879801660471 0
vn 0.3242016986096193 -0.9459879801660471 0
vn -0.3242078566751986 0.9459858696989475 0
vn -0.3242078566751986 0.9459858696989475 0
vn 0 0 1
vn 0 0 1
vn 0.9459854463644525 0.3242090918938698 0
vn 0.9459854463644525 0.3242090918938698 0
vn 0 0 -1
vn 0 0 -1
vn -0.9459848526849898 -0.32421082414157343 0
vn -0.9459848526849898 -0.32421082414157343 0
vn 0.3242016986096193 -0.9459879801660471 0
vn 0.3242016986096193 -0.9459879801660471 0
vn -0.3242078566751985 0.9459858696989475 0
vn -0.3242078566751985 0.9459858696989475 0
vn 0 0 1
vn 0 0 1
vn 0.9459854463644526 0.3242090918938698 0
vn 0.9459854463644526 0.3242090918938698 0
vn 0 0 -1
vn 0 0 -1
vn -0.9459848526849899 -0.3242108241415734 0
vn -0.9459848526849899 -0.3242108241415734 0
vn 0.32420169860961934 -0.9459879801660471 0
vn 0.32420169860961934 -0.9459879801660471 0
vn -0.3242078566751986 0.9459858696989475 0
vn -0.3242078566751986 0.9459858696989475 0
vn 0 0 1
vn 0 0 1
vn 0.9459854463644526 0.32420909189386987 0
vn 0.9459854463644526 0.32420909189386987 0
vn 0 0 -1
vn 0 0 -1
vn -0.9459848526849898 -0.3242108241415734 0
vn -0.9459848526849898 -0.3242108241415734 0
vn 0 1 0
vn 0 1 0
vn -1 0 0
vn -1 0 0
vn 1 0 0
vn 1 0 0
vn 0 0 -1
vn 0 0 -1
vn 0 1 0
vn 0 1 0
vn -1 0 0
vn -1 0 0
vn 1 0 0
vn 1 0 0
vn 0 0 1
vn 0 0 1
vn 0.32420785667519847 -0.9459858696989475 0
vn 0.32420785667519847 -0.9459858696989475 0
vn -0.32420785652344886 0.9459858692561666 0.000030596176454003444
vn -0.3242016986096194 0.9459879801660471 0
vn 0 0 -1
vn 0 0 -1
vn 0.9459848526849899 0.3242108241415734 0
vn 0.9459848526849899 0.3242108241415734 0
vn 0 0 1
vn 0 0 1
vn -0.9459848526329814 -0.32421082412374885 -0.0000104860039728306
vn -0.9459854463644526 -0.3242090918938698 0
vn 0.3242016986096193 -0.9459879801660471 0
vn 0.3242016986096193 -0.9459879801660471 0
vn -0.3242078566751985 0.9459858696989475 0
vn -0.3242078566751985 0.9459858696989475 0
vn 0 0 -1
vn 0 0 -1
vn 0.9459854463644526 0.3242090918938698 0
vn 0.9459854463644526 0.3242090918938698 0
vn 0 0 1
vn 0 0 1
vn -0.9459848526849899 -0.3242108241415734 0
vn -0.9459848526849899 -0.3242108241415734 0
usemtl Default_OBJ
f 1/1/1 2/2/1 3/3/1
f 1/4/2 3/5/2 4/6/2
f 5/7/3 6/8/3 7/9/3
f 5/10/4 7/11/4 8/12/4
f 8/13/5 7/14/5 3/15/5
f 8/16/6 3/17/6 2/18/6
f 6/19/7 5/20/7 1/21/7
f 6/22/8 1/23/8 4/24/8
f 7/25/9 6/26/9 4/27/9
f 7/28/10 4/29/10 3/30/10
f 1/31/11 9/32/11 10/33/11
f 1/34/12 10/35/12 2/36/12
f 5/37/13 8/38/13 11/39/13
f 5/40/14 11/41/14 12/42/14
f 8/43/15 2/44/15 10/45/15
f 8/46/16 10/47/16 11/48/16
f 12/49/17 9/50/17 1/51/17
f 12/52/18 1/53/18 5/54/18
f 11/55/19 10/56/19 9/57/19
f 11/58/20 9/59/20 12/60/20
f 13/61/21 14/62/21 15/63/21
f 13/64/22 15/65/22 16/66/22
f 17/67/23 13/68/23 16/69/23
f 17/70/24 16/71/24 18/72/24
f 18/73/25 16/74/25 15/75/25
f 18/76/26 15/77/26 19/78/26
f 19/79/27 15/80/27 14/81/27
f 19/82/28 14/83/28 20/84/28
f 20/85/29 14/86/29 13/87/29
f 20/88/30 13/89/30 17/90/30
f 21/91/31 22/92/31 23/93/31
f 21/94/32 23/95/32 24/96/32
f 17/97/33 18/98/33 22/99/33
f 17/100/34 22/101/34 21/102/34
f 18/103/35 19/104/35 23/105/35
f 18/106/36 23/107/36 22/108/36
f 19/109/37 20/110/37 24/111/37
f 19/112/38 24/113/38 23/114/38
f 20/115/39 17/116/39 21/117/39
f 20/118/40 21/119/40 24/120/40
f 25/121/41 26/122/41 27/123/41
f 25/124/42 27/125/42 28/126/42
f 28/127/43 27/128/43 29/129/43
f 28/130/44 29/131/44 30/132/44
f 25/133/45 28/134/45 30/135/45
f 25/136/46 30/137/46 31/138/46
f 26/139/47 25/140/47 31/141/47
f 26/142/48 31/143/48 32/144/48
f 27/145/49 26/146/49 32/147/49
f 27/148/50 32/149/50 29/150/50
f 33/151/51 34/152/51 35/153/51
f 33/154/52 35/155/52 36/156/52
f 34/157/53 30/158/53 29/159/53
f 34/160/54 29/161/54 35/162/54
f 33/163/55 31/164/55 30/165/55
f 33/166/56 30/167/56 34/168/56
f 36/169/57 32/170/57 31/171/57
f 36/172/58 31/173/58 33/174/58
f 35/175/59 29/176/59 32/177/59
f 35/178/60 32/179/60 36/180/60
f 37/181/61 38/182/61 39/183/61
f 37/184/62 39/185/62 40/186/62
f 41/187/63 42/188/63 43/189/63
f 41/190/64 43/191/64 44/192/64
f 44/193/65 43/194/65 39/195/65
f 44/196/66 39/197/66 38/198/66
f 41/199/67 44/200/67 38/201/67
f 41/202/68 38/203/68 37/204/68
f 42/205/69 41/206/69 37/207/69
f 42/208/70 37/209/70 40/210/70
f 43/211/71 42/212/71 40/213/71
f 43/214/72 40/215/72 39/216/72
f 45/217/73 46/218/73 47/219/73
f 45/220/74 47/221/74 48/222/74
f 49/223/75 50/224/75 51/225/75
f 49/226/76 51/227/76 52/228/76
f 52/229/77 51/230/77 47/231/77
f 52/232/78 47/233/78 46/234/78
f 49/235/79 52/236/79 46/237/79
f 49/238/80 46/239/80 45/240/80
f 50/241/81 49/242/81 45/243/81
f 50/244/82 45/245/82 48/246/82
f 51/247/83 50/248/83 48/249/83
f 51/250/84 48/251/84 47/252/84
f 53/253/85 54/254/85 55/255/85
f 53/256/86 55/257/86 56/258/86
f 56/259/87 55/260/87 57/261/87
f 56/262/88 57/263/88 58/264/88
f 54/265/89 53/266/89 59/267/89
f 54/268/90 59/269/90 60/270/90
f 55/271/91 54/272/91 60/273/91
f 55/274/92 60/275/92 57/276/92
f 53/277/93 56/278/93 61/279/93
f 53/280/94 61/281/94 62/282/94
f 56/283/95 58/284/95 63/285/95
f 56/286/96 63/287/96 61/288/96
f 62/289/97 64/290/97 59/291/97
f 62/292/98 59/293/98 53/294/98
f 61/295/99 63/296/99 64/297/99
f 61/298/100 64/299/100 62/300/100
f 65/301/101 66/302/101 67/303/101
f 65/304/102 67/305/102 68/306/102
f 69/307/103 70/308/103 71/309/103
f 69/310/104 71/311/104 72/312/104
f 65/313/105 69/314/105 72/315/105
f 65/316/106 72/317/106 66/318/106
f 66/319/107 72/320/107 71/321/107
f 66/322/108 71/323/108 67/324/108
f 67/325/109 71/326/109 70/327/109
f 67/328/110 70/329/110 68/330/110
f 68/331/111 70/332/111 69/333/111
f 68/334/112 69/335/112 65/336/112
f 73/337/113 74/338/113 75/339/113
f 73/340/114 75/341/114 76/342/114
f 77/343/115 78/344/115 79/345/115
f 77/346/116 79/347/116 80/348/116
f 73/349/117 77/350/117 80/351/117
f 73/352/118 80/353/118 74/354/118
f 74/355/119 80/356/119 79/357/119
f 74/358/120 79/359/120 75/360/120
f 75/361/121 79/362/121 78/363/121
f 75/364/122 78/365/122 76/366/122
f 76/367/123 78/368/123 77/369/123
f 76/370/124 77/371/124 73/372/124
f 81/373/125 82/374/125 83/375/125
f 81/376/126 83/377/126 84/378/126
f 85/379/127 86/380/127 87/381/127
f 85/382/128 87/383/128 88/384/128
f 88/385/129 87/386/129 83/387/129
f 88/388/130 83/389/130 82/390/130
f 85/391/131 88/392/131 82/393/131
f 85/394/132 82/395/132 81/396/132
f 86/397/133 85/398/133 81/399/133
f 86/400/134 81/401/134 84/402/134
f 87/403/135 86/404/135 84/405/135
f 87/406/136 84/407/136 83/408/136
f 89/409/137 90/410/137 91/411/137
f 89/412/138 91/413/138 92/414/138
f 93/415/139 94/416/139 95/417/139
f 93/418/140 95/419/140 96/420/140
f 96/421/141 95/422/141 91/423/141
f 96/424/142 91/425/142 90/426/142
f 93/427/143 96/428/143 90/429/143
f 93/430/144 90/431/144 89/432/144
f 94/433/145 93/434/145 89/435/145
f 94/436/146 89/437/146 92/438/146
f 95/439/147 94/440/147 92/441/147
f 95/442/148 92/443/148 91/444/148
f 97/445/149 98/446/149 99/447/149
f 97/448/150 99/449/150 100/450/150
f 101/451/151 102/452/151 103/453/151
f 101/454/152 103/455/152 104/456/152
f 104/457/153 103/458/153 99/459/153
f 104/460/154 99/461/154 98/462/154
f 101/463/155 104/464/155 98/465/155
f 101/466/156 98/467/156 97/468/156
f 102/469/157 101/470/157 97/471/157
f 102/472/158 97/473/158 100/474/158
f 103/475/159 102/476/159 100/477/159
f 103/478/160 100/479/160 99/480/160
f 105/481/161 106/482/161 107/483/161
f 105/484/162 107/485/162 108/486/162
f 109/487/163 110/488/163 111/489/163
f 109/490/164 111/491/164 112/492/164
f 112/493/165 111/494/165 107/495/165
f 112/496/166 107/497/166 106/498/166
f 109/499/167 112/500/167 106/501/167
f 109/502/168 106/503/168 105/504/168
f 110/505/169 109/506/169 105/507/169
f 110/508/170 105/509/170 108/510/170
f 111/511/171 110/512/171 108/513/171
f 111/514/172 108/515/172 107/516/172
f 113/517/173 114/518/173 115/519/173
f 113/520/174 115/521/174 116/522/174
f 117/523/175 118/524/175 119/525/175
f 117/526/176 119/527/176 120/528/176
f 120/529/177 119/530/177 115/531/177
f 120/532/178 115/533/178 114/534/178
f 117/535/179 120/536/179 114/537/179
f 117/538/180 114/539/180 113/540/180
f 118/541/181 117/542/181 113/543/181
f 118/544/182 113/545/182 116/546/182
f 119/547/183 118/548/183 116/549/183
f 119/550/184 116/551/184 115/552/184
f 121/553/185 122/554/185 123/555/185
f 121/556/186 123/557/186 124/558/186
f 125/559/187 126/560/187 127/561/187
f 125/562/188 127/563/188 128/564/188
f 128/565/189 127/566/189 123/567/189
f 128/568/190 123/569/190 122/570/190
f 125/571/191 128/572/191 122/573/191
f 125/574/192 122/575/192 121/576/192
f 126/577/193 125/578/193 121/579/193
f 126/580/194 121/581/194 124/582/194
f 127/583/195 126/584/195 124/585/195
f 127/586/196 124/587/196 123/588/196
f 129/589/197 130/590/197 131/591/197
f 129/592/198 131/593/198 132/594/198
f 133/595/199 134/596/199 135/597/199
f 133/598/200 135/599/200 136/600/200
f 129/601/201 133/602/201 136/603/201
f 129/604/202 136/605/202 130/606/202
f 130/607/203 136/608/203 135/609/203
f 130/610/204 135/611/204 131/612/204
f 131/613/205 135/614/205 134/615/205
f 131/616/206 134/617/206 132/618/206
f 132/619/207 134/620/207 133/621/207
f 132/622/208 133/623/208 129/624/208
f 137/625/209 138/626/209 139/627/209
f 137/628/210 139/629/210 140/630/210
f 141/631/211 142/632/211 143/633/211
f 141/634/212 143/635/212 144/636/212
f 137/637/213 141/638/213 144/639/213
f 137/640/214 144/641/214 138/642/214
f 138/643/215 144/644/215 143/645/215
f 138/646/216 143/647/216 139/648/216
f 139/649/217 143/650/217 142/651/217
f 139/652/218 142/653/218 140/654/218
f 140/655/219 142/656/219 141/657/219
f 140/658/220 141/659/220 137/660/220
f 145/661/221 146/662/221 147/663/221
f 145/664/222 147/665/222 148/666/222
f 149/667/223 150/668/223 151/669/223
f 149/670/224 151/671/224 152/672/224
f 145/673/225 149/674/225 152/675/225
f 145/676/226 152/677/226 146/678/226
f 146/679/227 152/680/227 151/681/227
f 146/682/228 151/683/228 147/684/228
f 147/685/229 151/686/229 150/687/229
f 147/688/230 150/689/230 148/690/230
f 148/691/231 150/692/231 149/693/231
f 148/694/232 149/695/232 145/696/232
f 153/697/233 154/698/233 155/699/233
f 153/700/234 155/701/234 156/702/234
f 157/703/235 158/704/235 159/705/235
f 157/706/236 159/707/236 160/708/236
f 153/709/237 157/710/237 160/711/237
f 153/712/238 160/713/238 154/714/238
f 154/715/239 160/716/239 159/717/239
f 154/718/240 159/719/240 155/720/240
f 155/721/241 159/722/241 158/723/241
f 155/724/242 158/725/242 156/726/242
f 156/727/243 158/728/243 157/729/243
f 156/730/244 157/731/244 153/732/244
f 161/733/245 162/734/245 163/735/245
f 161/736/246 163/737/246 164/738/246
f 165/739/247 166/740/247 167/741/247
f 165/742/248 167/743/248 168/744/248
f 161/745/249 165/746/249 168/747/249
f 161/748/250 168/749/250 162/750/250
f 162/751/251 168/752/251 167/753/251
f 162/754/252 167/755/252 163/756/252
f 163/757/253 167/758/253 166/759/253
f 163/760/254 166/761/254 164/762/254
f 164/763/255 166/764/255 165/765/255
f 164/766/256 165/767/256 161/768/256
f 169/769/257 170/770/257 171/771/257
f 169/772/258 171/773/258 172/774/258
f 173/775/259 174/776/259 175/777/259
f 173/778/260 175/779/260 176/780/260
f 169/781/261 173/782/261 176/783/261
f 169/784/262 176/785/262 170/786/262
f 170/787/263 176/788/263 175/789/263
f 170/790/264 175/791/264 171/792/264
f 171/793/265 175/794/265 174/795/265
f 171/796/266 174/797/266 172/798/266
f 172/799/267 174/800/267 173/801/267
f 172/802/268 173/803/268 169/804/268
f 177/805/269 178/806/269 179/807/269
f 177/808/270 179/809/270 180/810/270
f 181/811/271 182/812/271 183/813/271
f 181/814/272 183/815/272 184/816/272
f 177/817/273 181/818/273 184/819/273
f 177/820/274 184/821/274 178/822/274
f 178/823/275 184/824/275 183/825/275
f 178/826/276 183/827/276 179/828/276
f 179/829/277 183/830/277 182/831/277
f 179/832/278 182/833/278 180/834/278
f 180/835/279 182/836/279 181/837/279
f 180/838/280 181/839/280 177/840/280
f 185/841/281 186/842/281 187/843/281
f 185/844/282 187/845/282 188/846/282
f 189/847/283 190/848/283 191/849/283
f 189/850/284 191/851/284 192/852/284
f 185/853/285 189/854/285 192/855/285
f 185/856/286 192/857/286 186/858/286
f 186/859/287 192/860/287 191/861/287
f 186/862/288 191/863/288 187/864/288
f 187/865/289 191/866/289 190/867/289
f 187/868/290 190/869/290 188/870/290
f 188/871/291 190/872/291 189/873/291
f 188/874/292 189/875/292 185/876/292
f 193/877/293 194/878/293 195/879/293
f 193/880/294 195/881/294 196/882/294
f 197/883/295 198/884/295 199/885/295
f 197/886/296 199/887/296 200/888/296
f 200/889/297 199/890/297 195/891/297
f 200/892/298 195/893/298 194/894/298
f 197/895/299 200/896/299 194/897/299
f 197/898/300 194/899/300 193/900/300
f 198/901/301 197/902/301 193/903/301
f 198/904/302 193/905/302 196/906/302
f 199/907/303 198/908/303 196/909/303
f 199/910/304 196/911/304 195/912/304
f 201/913/305 202/914/305 203/915/305
f 201/916/306 203/917/306 204/918/306
f 205/919/307 206/920/307 207/921/307
f 205/922/308 207/923/308 208/924/308
f 208/925/309 207/926/309 203/927/309
f 208/928/310 203/929/310 202/930/310
f 205/931/311 208/932/311 202/933/311
f 205/934/312 202/935/312 201/936/312
f 206/937/313 205/938/313 201/939/313
f 206/940/314 201/941/314 204/942/314
f 207/943/315 206/944/315 204/945/315
f 207/946/316 204/947/316 203/948/316
f 209/949/317 210/950/317 211/951/317
f 209/952/318 211/953/318 212/954/318
f 213/955/319 214/956/319 215/957/319
f 213/958/320 215/959/320 216/960/320
f 216/961/321 215/962/321 211/963/321
f 216/964/322 211/965/322 210/966/322
f 213/967/323 216/968/323 210/969/323
f 213/970/324 210/971/324 209/972/324
f 214/973/325 213/974/325 209/975/325
f 214/976/326 209/977/326 212/978/326
f 215/979/327 214/980/327 212/981/327
f 215/982/328 212/983/328 211/984/328
f 217/985/329 218/986/329 219/987/329
f 217/988/330 219/989/330 220/990/330
f 221/991/331 222/992/331 223/993/331
f 221/994/332 223/995/332 224/996/332
f 224/997/333 223/998/333 219/999/333
f 224/1000/334 219/1001/334 218/1002/334
f 221/1003/335 224/1004/335 218/1005/335
f 221/1006/336 218/1007/336 217/1008/336
f 222/1009/337 221/1010/337 217/1011/337
f 222/1012/338 217/1013/338 220/1014/338
f 223/1015/339 222/1016/339 220/1017/339
f 223/1018/340 220/1019/340 219/1020/340
f 225/1021/341 226/1022/341 227/1023/341
f 225/1024/342 227/1025/342 228/1026/342
f 228/1027/343 227/1028/343 229/1029/343
f 228/1030/344 229/1031/344 230/1032/344
f 226/1033/345 225/1034/345 231/1035/345
f 226/1036/346 231/1037/346 232/1038/346
f 227/1039/347 226/1040/347 232/1041/347
f 227/1042/348 232/1043/348 229/1044/348
f 225/1045/349 228/1046/349 233/1047/349
f 225/1048/350 233/1049/350 234/1050/350
f 228/1051/351 230/1052/351 235/1053/351
f 228/1054/352 235/1055/352 233/1056/352
f 234/1057/353 236/1058/353 231/1059/353
f 234/1060/354 231/1061/354 225/1062/354
f 233/1063/355 235/1064/355 236/1065/355
f 233/1066/356 236/1067/356 234/1068/356
f 237/1069/357 238/1070/357 239/1071/357
f 237/1072/358 239/1073/358 240/1074/358
f 241/1075/359 242/1076/359 243/1077/359
f 241/1078/360 243/1079/360 244/1080/360
f 237/1081/361 241/1082/361 244/1083/361
f 237/1084/362 244/1085/362 238/1086/362
f 238/1087/363 244/1088/363 243/1089/363
f 238/1090/364 243/1091/364 239/1092/364
f 239/1093/365 243/1094/365 242/1095/365
f 239/1096/366 242/1097/366 240/1098/366
f 240/1099/367 242/1100/367 241/1101/367
f 240/1102/368 241/1103/368 237/1104/368
f 245/1105/369 246/1106/369 247/1107/369
f 245/1108/370 247/1109/370 248/1110/370
f 249/1111/371 250/1112/371 251/1113/371
f 249/1114/372 251/1115/372 252/1116/372
f 245/1117/373 249/1118/373 252/1119/373
f 245/1120/374 252/1121/374 246/1122/374
f 246/1123/375 252/1124/375 251/1125/375
f 246/1126/376 251/1127/376 247/1128/376
f 247/1129/377 251/1130/377 250/1131/377
f 247/1132/378 250/1133/378 248/1134/378
f 248/1135/379 250/1136/379 249/1137/379
f 248/1138/380 249/1139/380 245/1140/380