# Blender v3.4.1 OBJ File: ''
# www.blender.org
mtllib windgen_fan.mtl
o windgen_fan
v 0.690446 0.722197 0.305043
v 0.478314 0.810065 0.305043
v 0.680340 0.712090 0.742542
v 0.478314 0.795773 0.742542
v 0.266182 0.722197 0.305043
v 0.276287 0.712090 0.742542
v 0.178314 0.510064 0.305043
v 0.192605 0.510064 0.742542
v 0.266182 0.297932 0.305043
v 0.276287 0.308037 0.742542
v 0.478314 0.210065 0.305043
v 0.478314 0.224354 0.742542
v 0.690446 0.297932 0.305043
v 0.680340 0.308037 0.742542
v 0.778314 0.510064 0.305043
v 0.764022 0.510064 0.742542
v 0.576852 0.608603 0.921505
v 0.478314 0.649419 0.921505
v 0.379775 0.608603 0.921505
v 0.338959 0.510064 0.921505
v 0.379775 0.411525 0.921505
v 0.478314 0.370709 0.921505
v 0.576852 0.411525 0.921505
v 0.617668 0.510064 0.921505
v 0.478314 0.510064 0.305043
v 0.478314 0.510064 0.921505
v 0.298697 0.695498 0.468637
v 0.377134 0.695498 0.399659
v 0.313539 0.695498 0.524029
v 0.415957 0.695498 0.544548
v 0.430194 1.144232 0.540733
v 0.288254 1.144232 0.530804
v 0.345653 7.695498 0.515425
v 0.496085 7.695498 0.523078
v 0.330811 7.695498 0.460034
v 0.457262 7.695498 0.378190
v 0.273412 1.144232 0.475413
v 0.391371 1.144232 0.395844
v 0.482423 0.695498 0.419408
v 0.537438 1.144232 0.404667
v 0.497265 0.695498 0.474799
v 0.552280 1.144232 0.460058
v 0.194646 2.445428 0.496518
v 0.209488 2.445428 0.551909
v 0.455065 2.445428 0.378777
v 0.762958 2.445428 0.403607
v 0.748116 2.445428 0.348216
v 0.626933 7.695498 0.440056
v 0.612090 7.695498 0.384665
v 0.493888 2.445428 0.523666
v 0.261923 1.352271 0.478491
v 0.276765 1.352271 0.533882
v 0.456116 1.352271 0.378495
v 0.680838 1.352271 0.366243
v 0.695680 1.352271 0.421634
v 0.494939 1.352271 0.523384
v 0.390096 0.279294 0.468637
v 0.350878 0.347222 0.399659
v 0.382675 0.292145 0.524029
v 0.331466 0.380843 0.544548
v -0.064269 0.168805 0.540733
v 0.006701 0.045882 0.530804
v -5.695559 -3.180043 0.515423
v -5.770776 -3.049764 0.523076
v -5.688139 -3.192895 0.460032
v -5.751364 -3.083385 0.378188
v 0.014122 0.033026 0.475413
v -0.044857 0.135184 0.395844
v 0.298233 0.438405 0.419408
v -0.117891 0.261681 0.404667
v 0.290812 0.451258 0.474799
v -0.125312 0.274535 0.460058
v -1.073362 -0.685785 0.496518
v -1.080783 -0.672929 0.551909
v -1.203571 -0.460254 0.378777
v -1.357518 -0.193610 0.403607
v -1.350097 -0.206464 0.348216
v -5.836199 -2.936446 0.440054
v -5.828778 -2.949300 0.384663
v -1.222983 -0.426631 0.523666
v -0.160300 -0.080941 0.478491
v -0.167721 -0.068088 0.533882
v -0.257397 0.087235 0.378495
v -0.369758 0.281850 0.366243
v -0.377179 0.294703 0.421634
v -0.276808 0.120856 0.523384
v 0.688319 0.639355 0.468637
v 0.649101 0.571429 0.399659
v 0.680898 0.626502 0.524029
v 0.629690 0.537806 0.544548
v 1.011187 0.301110 0.540733
v 1.082157 0.424033 0.530804
v 6.727020 -2.901307 0.515423
v 6.651804 -3.031585 0.523076
v 6.734440 -2.888454 0.460032
v 6.671215 -2.997964 0.378188
v 1.089578 0.436887 0.475413
v 1.030599 0.334731 0.395844
v 0.596456 0.480246 0.419408
v 0.957565 0.208234 0.404667
v 0.589035 0.467391 0.474799
v 0.950144 0.195380 0.460058
v 2.255829 -0.145498 0.496518
v 2.248408 -0.158351 0.551909
v 2.125619 -0.371026 0.378777
v 1.971673 -0.637670 0.403607
v 1.979094 -0.624816 0.348216
v 6.586380 -3.144904 0.440054
v 6.593801 -3.132049 0.384663
v 2.106208 -0.404649 0.523666
v 1.275490 0.342816 0.478491
v 1.268069 0.329962 0.533882
v 1.178393 0.174639 0.378495
v 1.066032 -0.019975 0.366243
v 1.058611 -0.032829 0.421634
v 1.158982 0.141019 0.523384
vt 0.187500 0.505506
vt 0.217963 0.505540
vt 0.188166 0.563582
vt 0.217179 0.563602
vt 0.187500 0.505506
vt 0.217963 0.505540
vt 0.188166 0.563582
vt 0.217179 0.563602
vt 0.187500 0.505506
vt 0.217963 0.505540
vt 0.188166 0.563582
vt 0.217179 0.563602
vt 0.187500 0.505506
vt 0.217963 0.505540
vt 0.188166 0.563582
vt 0.217179 0.563602
vt 0.187500 0.505506
vt 0.217963 0.505540
vt 0.188166 0.563582
vt 0.217179 0.563602
vt 0.187500 0.505506
vt 0.217963 0.505540
vt 0.188166 0.563582
vt 0.217179 0.563602
vt 0.187500 0.505506
vt 0.217963 0.505540
vt 0.188166 0.563582
vt 0.217179 0.563602
vt 0.187500 0.505506
vt 0.217963 0.505540
vt 0.188166 0.563582
vt 0.217179 0.563602
vt 0.195586 0.593350
vt 0.209737 0.593355
vt 0.195586 0.593350
vt 0.209737 0.593355
vt 0.195586 0.593350
vt 0.209737 0.593355
vt 0.195586 0.593350
vt 0.209737 0.593355
vt 0.195586 0.593350
vt 0.209737 0.593355
vt 0.195586 0.593350
vt 0.209737 0.593355
vt 0.195586 0.593350
vt 0.209737 0.593355
vt 0.195586 0.593350
vt 0.209737 0.593355
vt 0.202777 0.468750
vt 0.202658 0.610434
vt 0.736912 0.040728
vt 0.725642 0.034057
vt 0.743084 0.038203
vt 0.749741 0.031250
vt 0.760392 0.096848
vt 0.741504 0.099097
vt 0.745354 0.972116
vt 0.761228 0.981928
vt 0.740491 0.974333
vt 0.729750 0.981613
vt 0.733671 0.100102
vt 0.714607 0.097983
vt 0.457938 0.039899
vt 0.465969 0.099837
vt 0.451631 0.038305
vt 0.454192 0.100305
vt 0.734858 0.276860
vt 0.741503 0.275673
vt 0.697702 0.278027
vt 0.461838 0.281156
vt 0.468950 0.280997
vt 0.457784 0.978375
vt 0.462537 0.976037
vt 0.778754 0.275829
vt 0.446833 0.985470
vt 0.478987 0.985879
vt 0.507727 0.279546
vt 0.468428 0.031250
vt 0.485734 0.092696
vt 0.443441 0.031287
vt 0.433896 0.095080
vt 0.422979 0.281410
vt 0.732801 0.129791
vt 0.741959 0.128554
vt 0.703689 0.128433
vt 0.490024 0.125154
vt 0.464206 0.134997
vt 0.459298 0.134745
vt 0.432625 0.127139
vt 0.771095 0.126873
vt 0.736912 0.040728
vt 0.725642 0.034057
vt 0.743084 0.038203
vt 0.749741 0.031250
vt 0.760392 0.096848
vt 0.741504 0.099097
vt 0.748659 0.972156
vt 0.764573 0.981905
vt 0.743807 0.974390
vt 0.733096 0.981714
vt 0.733671 0.100102
vt 0.714607 0.097983
vt 0.457938 0.039899
vt 0.465969 0.099837
vt 0.451631 0.038305
vt 0.454192 0.100305
vt 0.734858 0.276860
vt 0.741503 0.275673
vt 0.697702 0.278027
vt 0.461838 0.281156
vt 0.468950 0.280997
vt 0.460920 0.978439
vt 0.465669 0.976081
vt 0.778754 0.275829
vt 0.449984 0.985574
vt 0.482164 0.985853
vt 0.507727 0.279546
vt 0.468428 0.031250
vt 0.485734 0.092696
vt 0.443441 0.031287
vt 0.433896 0.095080
vt 0.422979 0.281410
vt 0.732801 0.129791
vt 0.741959 0.128554
vt 0.703689 0.128433
vt 0.490024 0.125154
vt 0.464206 0.134997
vt 0.459298 0.134745
vt 0.432625 0.127139
vt 0.771095 0.126873
vt 0.737968 0.040671
vt 0.726730 0.033947
vt 0.744150 0.038172
vt 0.750839 0.031250
vt 0.760392 0.096848
vt 0.741504 0.099097
vt 0.742245 0.972091
vt 0.758074 0.981972
vt 0.737371 0.974285
vt 0.726600 0.981518
vt 0.733671 0.100102
vt 0.714607 0.097983
vt 0.459880 0.039911
vt 0.467871 0.099858
vt 0.453572 0.038316
vt 0.456096 0.100319
vt 0.734858 0.276860
vt 0.741503 0.275673
vt 0.697702 0.278027
vt 0.463622 0.281179
vt 0.470719 0.281029
vt 0.458972 0.978401
vt 0.463734 0.976067
vt 0.778754 0.275829
vt 0.448009 0.985488
vt 0.480174 0.985919
vt 0.509454 0.279603
vt 0.470374 0.031269
vt 0.487639 0.092729
vt 0.445387 0.031291
vt 0.435798 0.095079
vt 0.424761 0.281405
vt 0.732801 0.129791
vt 0.741959 0.128554
vt 0.703689 0.128433
vt 0.491908 0.125196
vt 0.466084 0.135023
vt 0.461174 0.134765
vt 0.434509 0.127138
vt 0.771095 0.126873
vn 0.3825 0.9235 0.0302
vn 0.3755 0.9031 0.2085
vn 0.3757 0.9069 0.1906
vn -0.3825 0.9235 0.0302
vn -0.3731 0.9041 0.2085
vn -0.3757 0.9069 0.1906
vn -0.9235 0.3825 0.0302
vn -0.9031 0.3755 0.2085
vn -0.9069 0.3757 0.1906
vn -0.9235 -0.3825 0.0302
vn -0.9041 -0.3731 0.2085
vn -0.9069 -0.3757 0.1906
vn -0.3825 -0.9235 0.0302
vn -0.3755 -0.9031 0.2085
vn -0.3757 -0.9069 0.1906
vn 0.3825 -0.9235 0.0302
vn 0.3731 -0.9041 0.2085
vn 0.3757 -0.9070 0.1906
vn 0.9235 -0.3825 0.0302
vn 0.9031 -0.3755 0.2085
vn 0.9070 -0.3757 0.1906
vn 0.9235 0.3825 0.0302
vn 0.9041 0.3731 0.2085
vn 0.9069 0.3757 0.1906
vn 0.3053 0.7371 0.6028
vn -0.3053 0.7371 0.6028
vn -0.7371 0.3053 0.6028
vn -0.7371 -0.3053 0.6028
vn -0.3053 -0.7371 0.6028
vn 0.3053 -0.7371 0.6028
vn 0.7371 -0.3053 0.6028
vn 0.7371 0.3053 0.6028
vn 0.0000 0.0000 -1.0000
vn 0.0000 0.0000 1.0000
vn 0.0000 -1.0000 0.0000
vn 0.2500 0.0003 0.9682
vn 0.2438 -0.0234 0.9695
vn -0.1658 0.0064 0.9861
vn -0.0698 -0.0188 0.9974
vn 0.0000 1.0000 0.0000
vn -0.5591 -0.0188 -0.8289
vn -0.2736 -0.0235 -0.9616
vn -0.6367 0.0064 -0.7711
vn -0.2676 0.0003 -0.9635
vn 0.9582 -0.1259 -0.2568
vn 0.9219 -0.2985 -0.2470
vn -0.9643 -0.0577 0.2584
vn -0.9643 -0.0582 0.2584
vn -0.9643 -0.0579 0.2584
vn -0.9656 0.0268 0.2587
vn -0.9659 0.0112 0.2588
vn -0.2588 0.0000 -0.9659
vn -0.2589 0.0020 -0.9659
vn -0.5355 0.0004 -0.8445
vn -0.4120 0.0019 -0.9112
vn 0.9659 0.0112 -0.2588
vn 0.9656 0.0268 -0.2587
vn 0.0988 0.0019 0.9951
vn 0.2588 0.0020 0.9659
vn -0.0415 0.0004 0.9991
vn 0.2588 -0.0000 0.9659
vn 0.0324 0.0002 -0.9995
vn -0.1037 0.0018 -0.9946
vn 0.1543 -0.0206 -0.9878
vn 0.0309 -0.0800 -0.9963
vn 0.6275 -0.0206 0.7783
vn 0.5249 -0.0801 0.8474
vn 0.5278 0.0002 0.8494
vn 0.4075 0.0018 0.9132
vn -0.9640 -0.0626 0.2583
vn -0.9640 -0.0625 0.2583
vn -0.4538 0.0036 -0.8911
vn -0.2522 -0.0074 -0.9677
vn -0.0635 -0.0159 -0.9979
vn 0.9526 -0.1653 -0.2553
vn 0.2654 -0.0074 0.9641
vn 0.4439 -0.0159 0.8959
vn 0.0525 0.0036 0.9986
vn 0.8660 0.5000 0.0000
vn -0.1253 0.2163 0.9682
vn -0.1016 0.2229 0.9695
vn 0.0774 -0.1468 0.9861
vn 0.0512 -0.0510 0.9974
vn -0.8660 -0.5000 0.0000
vn 0.2958 -0.4748 -0.8289
vn 0.1571 -0.2252 -0.9616
vn 0.3128 -0.5546 -0.7711
vn 0.1336 -0.2319 -0.9635
vn -0.3701 0.8928 -0.2568
vn -0.2024 0.9476 -0.2470
vn 0.5321 -0.8063 0.2584
vn 0.5326 -0.8060 0.2583
vn 0.4595 -0.8496 0.2587
vn 0.4732 -0.8421 0.2588
vn 0.1294 -0.2240 -0.9660
vn 0.1277 -0.2252 -0.9659
vn 0.2674 -0.4639 -0.8445
vn 0.2044 -0.3577 -0.9112
vn -0.4927 0.8309 -0.2588
vn -0.4927 0.8308 -0.2588
vn -0.5060 0.8228 -0.2587
vn -0.0510 0.0847 0.9951
vn -0.1311 0.2231 0.9659
vn 0.0204 -0.0361 0.9991
vn -0.1295 0.2242 0.9659
vn -0.0163 0.0280 -0.9995
vn 0.0503 -0.0907 -0.9946
vn -0.0593 0.1439 -0.9878
vn 0.0539 0.0667 -0.9963
vn -0.2959 0.5537 0.7783
vn -0.1931 0.4946 0.8474
vn -0.2640 0.4570 0.8494
vn -0.2053 0.3520 0.9132
vn 0.5362 -0.8036 0.2583
vn 0.2238 -0.3948 -0.8911
vn 0.1325 -0.2147 -0.9677
vn 0.0455 -0.0470 -0.9979
vn -0.3332 0.9076 -0.2553
vn -0.3332 0.9077 -0.2553
vn -0.1263 0.2335 0.9641
vn -0.2082 0.3924 0.8959
vn -0.0294 0.0437 0.9986
vn -0.8660 0.5000 -0.0000
vn -0.1247 -0.2166 0.9683
vn -0.1422 -0.1994 0.9695
vn 0.0885 0.1404 0.9861
vn 0.0186 0.0698 0.9974
vn 0.8660 -0.5000 -0.0000
vn 0.2633 0.4936 -0.8289
vn 0.1165 0.2487 -0.9616
vn 0.3239 0.5482 -0.7711
vn 0.1341 0.2316 -0.9635
vn -0.5882 -0.7669 -0.2568
vn -0.7194 -0.6491 -0.2470
vn -0.7195 -0.6491 -0.2470
vn 0.4322 0.8640 0.2584
vn 0.4320 0.8641 0.2584
vn 0.4319 0.8641 0.2584
vn 0.5060 0.8228 0.2587
vn 0.4927 0.8308 0.2588
vn 0.1294 0.2241 -0.9659
vn 0.1312 0.2232 -0.9659
vn 0.2681 0.4635 -0.8446
vn 0.2076 0.3558 -0.9112
vn -0.4732 -0.8421 -0.2588
vn -0.4596 -0.8496 -0.2587
vn -0.0478 -0.0865 0.9951
vn -0.1276 -0.2251 0.9659
vn 0.0211 0.0357 0.9991
vn -0.1294 -0.2242 0.9659
vn -0.0161 -0.0281 -0.9995
vn 0.0534 0.0889 -0.9946
vn -0.0950 -0.1233 -0.9878
vn -0.0847 0.0133 -0.9963
vn -0.3316 -0.5332 0.7783
vn -0.3317 -0.4146 0.8474
vn -0.2638 -0.4572 0.8494
vn -0.2022 -0.3538 0.9132
vn 0.4278 0.8662 0.2583
vn 0.2300 0.3912 -0.8911
vn 0.1197 0.2221 -0.9676
vn 0.0180 0.0630 -0.9979
vn -0.6195 -0.7423 -0.2553
vn -0.6195 -0.7424 -0.2553
vn -0.1391 -0.2262 0.9641
vn -0.2358 -0.3765 0.8959
vn -0.0231 -0.0473 0.9986
usemtl Default_OBJ.002
s 1
f 1/1/1 2/2/1 3/3/2
f 3/3/2 2/2/1 4/4/3
f 2/5/4 5/6/4 4/7/5
f 4/7/5 5/6/4 6/8/6
f 5/9/7 7/10/7 6/11/8
f 6/11/8 7/10/7 8/12/9
f 7/13/10 9/14/10 8/15/11
f 8/15/11 9/14/10 10/16/12
f 9/17/13 11/18/13 10/19/14
f 10/19/14 11/18/13 12/20/15
f 11/21/16 13/22/16 12/23/17
f 12/23/17 13/22/16 14/24/18
f 13/25/19 15/26/19 14/27/20
f 14/27/20 15/26/19 16/28/21
f 15/29/22 1/30/22 16/31/23
f 16/31/23 1/30/22 3/32/24
f 3/3/2 4/4/3 17/33/25
f 17/33/25 4/4/3 18/34/25
f 4/7/5 6/8/6 18/35/26
f 18/35/26 6/8/6 19/36/26
f 6/11/8 8/12/9 19/37/27
f 19/37/27 8/12/9 20/38/27
f 8/15/11 10/16/12 20/39/28
f 20/39/28 10/16/12 21/40/28
f 10/19/14 12/20/15 21/41/29
f 21/41/29 12/20/15 22/42/29
f 12/23/17 14/24/18 22/43/30
f 22/43/30 14/24/18 23/44/30
f 14/27/20 16/28/21 23/45/31
f 23/45/31 16/28/21 24/46/31
f 16/31/23 3/32/24 24/47/32
f 24/47/32 3/32/24 17/48/32
f 2/2/33 1/1/33 25/49/33
f 5/6/33 2/5/33 25/49/33
f 7/10/33 5/9/33 25/49/33
f 9/14/33 7/13/33 25/49/33
f 11/18/33 9/17/33 25/49/33
f 13/22/33 11/21/33 25/49/33
f 15/26/33 13/25/33 25/49/33
f 1/30/33 15/29/33 25/49/33
f 17/33/34 18/34/34 26/50/34
f 18/35/34 19/36/34 26/50/34
f 19/37/34 20/38/34 26/50/34
f 20/39/34 21/40/34 26/50/34
f 21/41/34 22/42/34 26/50/34
f 22/43/34 23/44/34 26/50/34
f 23/45/34 24/46/34 26/50/34
f 24/47/34 17/48/34 26/50/34
f 27/51/35 28/52/35 29/53/35
f 29/53/35 28/52/35 30/54/35
f 30/54/36 31/55/37 29/53/38
f 29/53/38 31/55/37 32/56/39
f 33/57/40 34/58/40 35/59/40
f 35/59/40 34/58/40 36/60/40
f 37/61/41 38/62/42 27/51/43
f 27/51/43 38/62/42 28/52/44
f 39/63/45 40/64/46 41/65/45
f 41/65/45 40/64/46 42/66/46
f 37/61/47 27/51/48 32/56/47
f 32/56/47 27/51/48 29/53/49
f 35/59/50 43/67/51 33/57/50
f 33/57/50 43/67/51 44/68/51
f 36/60/52 45/69/53 35/59/54
f 35/59/54 45/69/53 43/67/55
f 46/70/56 47/71/56 48/72/57
f 48/72/57 47/71/56 49/73/57
f 44/68/58 50/74/59 33/57/60
f 33/57/60 50/74/59 34/58/61
f 34/75/40 48/72/40 36/76/40
f 36/76/40 48/72/40 49/73/40
f 36/76/52 49/73/62 45/77/53
f 45/77/53 49/73/62 47/71/63
f 28/78/44 38/79/42 39/63/64
f 39/63/64 38/79/42 40/64/65
f 30/80/35 28/78/35 41/65/35
f 41/65/35 28/78/35 39/63/35
f 30/80/36 41/65/66 31/81/37
f 31/81/37 41/65/66 42/66/67
f 34/75/61 50/82/59 48/72/68
f 48/72/68 50/82/59 46/70/69
f 43/67/51 51/83/70 44/68/51
f 44/68/51 51/83/70 52/84/71
f 43/67/55 45/69/53 51/83/72
f 51/83/72 45/69/53 53/85/73
f 53/86/73 45/77/53 54/87/74
f 54/87/74 45/77/53 47/71/63
f 55/88/75 54/87/75 46/70/56
f 46/70/56 54/87/75 47/71/56
f 56/89/76 55/88/77 50/82/59
f 50/82/59 55/88/77 46/70/69
f 56/90/76 50/74/59 52/84/78
f 52/84/78 50/74/59 44/68/58
f 51/83/70 37/61/47 52/84/71
f 52/84/71 37/61/47 32/56/47
f 53/85/73 38/62/42 51/83/72
f 51/83/72 38/62/42 37/61/41
f 38/79/42 53/86/73 40/64/65
f 40/64/65 53/86/73 54/87/74
f 42/66/46 40/64/46 55/88/75
f 55/88/75 40/64/46 54/87/75
f 31/81/37 42/66/67 56/89/76
f 56/89/76 42/66/67 55/88/77
f 32/56/39 31/55/37 52/84/78
f 52/84/78 31/55/37 56/90/76
f 57/91/79 58/92/79 59/93/79
f 59/93/79 58/92/79 60/94/79
f 60/94/80 61/95/81 59/93/82
f 59/93/82 61/95/81 62/96/83
f 63/97/84 64/98/84 65/99/84
f 65/99/84 64/98/84 66/100/84
f 67/101/85 68/102/86 57/91/87
f 57/91/87 68/102/86 58/92/88
f 69/103/89 70/104/90 71/105/89
f 71/105/89 70/104/90 72/106/90
f 67/101/91 57/91/92 62/96/91
f 62/96/91 57/91/92 59/93/92
f 65/99/93 73/107/94 63/97/93
f 63/97/93 73/107/94 74/108/94
f 66/100/95 75/109/96 65/99/97
f 65/99/97 75/109/96 73/107/98
f 76/110/99 77/111/100 78/112/101
f 78/112/101 77/111/100 79/113/101
f 74/108/102 80/114/103 63/97/104
f 63/97/104 80/114/103 64/98/105
f 64/115/84 78/112/84 66/116/84
f 66/116/84 78/112/84 79/113/84
f 66/116/95 79/113/106 75/117/96
f 75/117/96 79/113/106 77/111/107
f 58/118/88 68/119/86 69/103/108
f 69/103/108 68/119/86 70/104/109
f 60/120/79 58/118/79 71/105/79
f 71/105/79 58/118/79 69/103/79
f 60/120/80 71/105/110 61/121/81
f 61/121/81 71/105/110 72/106/111
f 64/115/105 80/122/103 78/112/112
f 78/112/112 80/122/103 76/110/113
f 73/107/94 81/123/114 74/108/94
f 74/108/94 81/123/114 82/124/114
f 73/107/98 75/109/96 81/123/115
f 81/123/115 75/109/96 83/125/116
f 83/126/116 75/117/96 84/127/117
f 84/127/117 75/117/96 77/111/107
f 85/128/118 84/127/119 76/110/99
f 76/110/99 84/127/119 77/111/100
f 86/129/120 85/128/121 80/122/103
f 80/122/103 85/128/121 76/110/113
f 86/130/120 80/114/103 82/124/122
f 82/124/122 80/114/103 74/108/102
f 81/123/114 67/101/91 82/124/114
f 82/124/114 67/101/91 62/96/91
f 83/125/116 68/102/86 81/123/115
f 81/123/115 68/102/86 67/101/85
f 68/119/86 83/126/116 70/104/109
f 70/104/109 83/126/116 84/127/117
f 72/106/90 70/104/90 85/128/118
f 85/128/118 70/104/90 84/127/119
f 61/121/81 72/106/111 86/129/120
f 86/129/120 72/106/111 85/128/121
f 62/96/83 61/95/81 82/124/122
f 82/124/122 61/95/81 86/130/120
f 87/131/123 88/132/123 89/133/123
f 89/133/123 88/132/123 90/134/123
f 90/134/124 91/135/125 89/133/126
f 89/133/126 91/135/125 92/136/127
f 93/137/128 94/138/128 95/139/128
f 95/139/128 94/138/128 96/140/128
f 97/141/129 98/142/130 87/131/131
f 87/131/131 98/142/130 88/132/132
f 99/143/133 100/144/134 101/145/133
f 101/145/133 100/144/134 102/146/135
f 97/141/136 87/131/137 92/136/138
f 92/136/138 87/131/137 89/133/136
f 95/139/139 103/147/140 93/137/139
f 93/137/139 103/147/140 104/148/140
f 96/140/141 105/149/142 95/139/143
f 95/139/143 105/149/142 103/147/144
f 106/150/145 107/151/145 108/152/146
f 108/152/146 107/151/145 109/153/146
f 104/148/147 110/154/148 93/137/149
f 93/137/149 110/154/148 94/138/150
f 94/155/128 108/152/128 96/156/128
f 96/156/128 108/152/128 109/153/128
f 96/156/141 109/153/151 105/157/142
f 105/157/142 109/153/151 107/151/152
f 88/158/132 98/159/130 99/143/153
f 99/143/153 98/159/130 100/144/154
f 90/160/123 88/158/123 101/145/123
f 101/145/123 88/158/123 99/143/123
f 90/160/124 101/145/155 91/161/125
f 91/161/125 101/145/155 102/146/156
f 94/155/150 110/162/148 108/152/157
f 108/152/157 110/162/148 106/150/158
f 103/147/140 111/163/159 104/148/140
f 104/148/140 111/163/159 112/164/159
f 103/147/144 105/149/142 111/163/160
f 111/163/160 105/149/142 113/165/161
f 113/166/161 105/157/142 114/167/162
f 114/167/162 105/157/142 107/151/152
f 115/168/163 114/167/164 106/150/145
f 106/150/145 114/167/164 107/151/145
f 116/169/165 115/168/166 110/162/148
f 110/162/148 115/168/166 106/150/158
f 116/170/165 110/154/148 112/164/167
f 112/164/167 110/154/148 104/148/147
f 111/163/159 97/141/136 112/164/159
f 112/164/159 97/141/136 92/136/138
f 113/165/161 98/142/130 111/163/160
f 111/163/160 98/142/130 97/141/129
f 98/159/130 113/166/161 100/144/154
f 100/144/154 113/166/161 114/167/162
f 102/146/135 100/144/134 115/168/163
f 115/168/163 100/144/134 114/167/164
f 91/161/125 102/146/156 116/169/165
f 116/169/165 102/146/156 115/168/166
f 92/136/127 91/135/125 112/164/167
f 112/164/167 91/135/125 116/170/165
